<svg
   width="49.999878mm"
   height="50.000019mm"
   viewBox="0 0 49.999878 50.000019"
   version="1.1"
   id="svg1"
<defs
     id="defs1" /><g
     inkscape:label="Layer 1"
     inkscape:groupmode="layer"
     id="layer1"
     transform="translate(-74.233843,-83.162122)"><path
       style="fill:#000000;stroke-width:0.0922552"
       d="m 97.994592,133.1312 c -1.131588,-0.06 -2.276051,-0.19447 -3.330497,-0.39081 -0.481497,-0.0897 -1.298168,-0.26782 -1.59924,-0.34882 -0.07384,-0.0197 -0.222081,-0.0596 -0.329461,-0.089 -1.330433,-0.35883 -2.709299,-0.85553 -3.840399,-1.38342 -0.125686,-0.0586 -0.232996,-0.10656 -0.238477,-0.10656 -0.0055,0 -0.23211,-0.11096 -0.503623,-0.24672 -1.062698,-0.53116 -1.948914,-1.04735 -2.909719,-1.69479 -0.783804,-0.52819 -1.688005,-1.2252 -2.428973,-1.87239 -0.103329,-0.0904 -0.195751,-0.15615 -0.20542,-0.14648 -0.0097,0.0107 -0.01393,0.005 -0.0093,-0.007 0.0045,-0.0139 -0.134633,-0.15676 -0.309126,-0.31702 -0.397818,-0.3654 -1.088274,-1.05671 -1.438339,-1.44013 -0.146801,-0.1608 -0.278587,-0.2887 -0.292858,-0.28421 -0.01427,0.004 -0.01836,4.3e-4 -0.0089,-0.01 0.0092,-0.01 -0.09096,-0.14164 -0.222736,-0.2942 -0.32372,-0.37475 -0.839619,-1.02021 -1.159606,-1.45079 -0.14468,-0.1947 -0.273583,-0.35098 -0.286453,-0.34729 -0.01294,0.004 -0.01632,-0.004 -0.0076,-0.0186 0.01436,-0.0232 -0.121125,-0.22117 -0.164443,-0.24022 -0.01013,-0.004 -0.01849,-0.0176 -0.01849,-0.0299 0,-0.0119 -0.129858,-0.2169 -0.288577,-0.45572 -5.399538,-8.12514 -5.563697,-18.33882 -0.433028,-26.94173 1.559542,-2.614985 4.128514,-5.351535 6.822764,-7.267821 4.342582,-3.088667 9.385801,-4.650345 14.801409,-4.58339 1.25459,0.01548 1.67879,0.04277 2.78212,0.178566 4.804,0.591419 9.44418,2.645392 13.11225,5.804123 0.15657,0.134829 0.2872,0.229888 0.30273,0.220291 0.0154,-0.0095 0.0204,-0.0058 0.0119,0.0083 -0.01,0.01394 0.15715,0.18487 0.36837,0.379895 0.41356,0.381836 1.22072,1.193002 1.58987,1.597749 0.12535,0.137406 0.23917,0.242822 0.25301,0.234259 0.0142,-0.0088 0.0176,-0.0036 0.007,0.01214 -0.0107,0.01596 0.0746,0.133695 0.19996,0.278431 0.86079,0.994241 1.79807,2.297642 2.4933,3.467195 0.14051,0.236351 0.26575,0.423361 0.27831,0.415584 0.0127,-0.0076 0.0152,-0.0021 0.006,0.01281 -0.01,0.01482 0.0733,0.189534 0.18362,0.388288 4.60617,8.31244 3.95153,18.87402 -1.6481,26.58934 -0.14924,0.20564 -0.28782,0.39833 -0.30796,0.42817 -0.0953,0.14117 -0.78054,0.98844 -1.05938,1.30975 -1.00514,1.15806 -2.16291,2.27306 -3.30938,3.18703 -0.44593,0.35548 -0.48767,0.38808 -0.7074,0.55211 -0.0737,0.055 -0.13122,0.11048 -0.12755,0.12322 0.004,0.0128 -0.004,0.0162 -0.017,0.007 -0.0193,-0.0119 -0.17857,0.094 -0.46735,0.3117 -0.0211,0.0159 -0.0562,0.0402 -0.0782,0.0535 -0.0218,0.0133 -0.14719,0.097 -0.27872,0.18559 -0.27531,0.18556 -0.60491,0.39941 -0.76386,0.49565 -0.0604,0.0367 -0.16475,0.10036 -0.23186,0.14179 -4.10739,2.53442 -9.2916,3.84329 -14.191279,3.58286 z m 2.513678,-0.53661 c 3.79566,-0.20769 7.50683,-1.2751 10.65488,-3.06454 0.15982,-0.0909 0.32355,-0.18383 0.3638,-0.20666 0.50998,-0.28907 1.23471,-0.75774 1.21674,-0.78685 -0.01,-0.0152 -0.004,-0.0189 0.0119,-0.01 0.0151,0.01 0.0579,-0.004 0.0953,-0.0304 1.39165,-0.97422 1.96811,-1.42948 2.95959,-2.33742 0.70912,-0.64936 1.87271,-1.86545 1.83825,-1.92122 -0.01,-0.0137 -0.004,-0.018 0.01,-0.0107 0.043,0.0264 0.99979,-1.13385 0.97201,-1.17884 -0.01,-0.0142 -0.005,-0.0229 0.007,-0.0191 0.0328,0.01 0.2512,-0.2734 0.2337,-0.30172 -0.007,-0.0129 -0.004,-0.0192 0.0107,-0.0156 0.0537,0.0152 0.818,-1.09852 1.30514,-1.90256 4.58071,-7.56051 4.70036,-17.14034 0.30956,-24.788357 -0.47272,-0.823391 -1.22989,-1.987901 -1.27459,-1.960264 -0.0148,0.0089 -0.0185,0.0045 -0.01,-0.01096 0.0201,-0.03288 -0.3357,-0.524576 -0.36125,-0.499009 -0.0107,0.0099 -0.0142,0.0055 -0.0107,-0.0098 0.0119,-0.04196 -0.3216,-0.475258 -0.35175,-0.4566 -0.0152,0.0095 -0.0186,0.0045 -0.007,-0.01255 0.0572,-0.09276 -1.51659,-1.844838 -2.41393,-2.687262 -9.6558,-9.064647 -24.572266,-8.93147 -33.956063,0.303162 -0.929457,0.914687 -2.31114,2.493881 -2.257674,2.580417 0.0092,0.01512 0.0062,0.02086 -0.0069,0.01269 -0.02582,-0.01593 -0.271368,0.302123 -0.654248,0.847449 -5.732954,8.165184 -5.891563,19.122304 -0.397517,27.460954 0.149928,0.22754 0.28021,0.40156 0.29417,0.39295 0.01445,-0.01 0.01769,-0.004 0.0074,0.0127 -0.03025,0.049 1.000769,1.43809 1.0578,1.42514 0.01629,-0.004 0.02239,0.004 0.0136,0.0189 -0.05595,0.0907 1.606527,1.89252 2.526027,2.73792 0.61006,0.56089 1.235039,1.07919 1.273004,1.05573 0.01645,-0.0107 0.02134,-0.006 0.01179,0.01 -0.03171,0.0513 1.374039,1.09881 1.42903,1.0648 0.01502,-0.01 0.0201,-0.005 0.01144,0.01 -0.01629,0.0264 0.241201,0.21036 0.294343,0.21036 0.01695,0 0.02559,0.005 0.01916,0.0119 -0.02936,0.0297 1.085525,0.71574 1.781048,1.09655 2.882721,1.57824 5.998665,2.53993 9.310364,2.87347 0.299766,0.0304 0.637005,0.0543 1.330057,0.0957 0.323361,0.0189 1.955359,0.013 2.355049,-0.01 z m -2.147608,-1.04143 c -4.328983,-0.18908 -8.445171,-1.49594 -11.880923,-3.77207 -0.138662,-0.0921 -0.262485,-0.16064 -0.275159,-0.15278 -0.01267,0.007 -0.02,0.004 -0.01632,-0.0107 0.0036,-0.0135 -0.08663,-0.0887 -0.200731,-0.16682 -0.114099,-0.0785 -0.261747,-0.18063 -0.328117,-0.22752 -0.111823,-0.0792 -0.849368,-0.63116 -0.904318,-0.67702 -0.184014,-0.15358 -0.364556,-0.28575 -0.383036,-0.28041 -0.01282,0.004 -0.01704,-0.004 -0.0094,-0.0155 0.0074,-0.0119 -0.0273,-0.0535 -0.07751,-0.092 -0.433572,-0.32986 -1.398077,-1.24318 -2.211071,-2.09374 -0.110358,-0.11526 -0.728985,-0.82207 -0.819385,-0.93595 -0.045,-0.0565 -0.09146,-0.0971 -0.103328,-0.0898 -0.01168,0.007 -0.01849,0.002 -0.01481,-0.0107 0.0054,-0.0187 -0.09126,-0.15127 -0.279791,-0.38317 -0.673939,-0.82911 -1.639398,-2.30126 -2.233484,-3.4057 -3.181702,-5.91504 -3.663405,-12.98849 -1.312994,-19.280404 0.07641,-0.204589 0.131028,-0.384814 0.121345,-0.400495 -0.01036,-0.01695 -0.007,-0.02196 0.0085,-0.01239 0.01552,0.0095 0.04347,-0.03093 0.06896,-0.09999 0.390114,-1.057301 1.301259,-2.812428 2.094452,-4.034524 2.022764,-3.116513 5.036428,-5.955921 8.1168,-7.647468 0.0604,-0.03319 0.230624,-0.126626 0.378271,-0.207695 5.74227,-3.152736 12.843387,-3.691166 19.060037,-1.445181 1.74614,0.630854 3.50267,1.509433 4.93661,2.469195 0.17828,0.119324 0.33648,0.209335 0.35155,0.200019 0.0153,-0.0094 0.0205,-0.006 0.0119,0.0079 -0.0186,0.03039 0.36757,0.306863 0.40043,0.286561 0.0129,-0.008 0.0203,-0.0046 0.0166,0.0071 -0.004,0.01179 0.18,0.162968 0.40818,0.33568 0.22818,0.172709 0.55684,0.430193 0.73038,0.572188 0.17353,0.141994 0.32452,0.255425 0.33555,0.252067 0.0119,-0.0036 0.0173,0.0031 0.0139,0.01464 -0.004,0.01132 0.0819,0.09524 0.18914,0.186281 3.65182,3.09637 6.37855,7.610472 7.49181,12.402636 1.67706,7.21939 -0.27057,15.18323 -5.01928,20.52363 -0.0916,0.10286 -0.16631,0.19125 -0.16631,0.19642 0,0.0132 -0.26952,0.30791 -0.69827,0.76309 -0.69529,0.73811 -1.82074,1.7551 -2.57778,2.32937 -0.0771,0.0584 -0.13299,0.11751 -0.12432,0.13165 0.01,0.0141 0.004,0.0179 -0.0119,0.01 -0.0145,-0.01 -0.11247,0.048 -0.2173,0.12683 -4.21232,3.16853 -9.63351,4.85522 -14.869983,4.62649 z m -0.03996,-1.23485 c 0.05156,-0.45688 0.05093,-0.48215 -0.01168,-0.48225 -0.08243,-2e-4 -2.004731,-0.16898 -2.011344,-0.17666 -0.0091,-0.0119 0.08434,-1.00127 0.09564,-1.01259 0.0057,-0.005 0.195564,0.006 0.421619,0.0269 0.913008,0.0841 1.399973,0.11992 1.415165,0.10465 0.02298,-0.0229 0.06599,-0.52079 0.04889,-0.5654 -0.0096,-0.0255 -0.04779,-0.0375 -0.118805,-0.0378 -0.120019,-3.8e-4 -1.704866,-0.13993 -1.716097,-0.15119 -0.01048,-0.0107 0.06325,-0.81012 0.07597,-0.82284 0.0057,-0.005 0.156039,0.002 0.333817,0.0183 0.177786,0.0158 0.581325,0.0506 0.896749,0.0772 0.315433,0.0264 0.613735,0.0535 0.662897,0.0604 0.102995,0.0143 0.10259,0.0156 0.132172,-0.38211 l 0.01575,-0.21175 -0.106439,-0.0145 c -0.146046,-0.02 -2.615881,-0.23382 -2.621,-0.22673 -0.0021,0.004 -0.04499,0.48359 -0.09493,1.06767 -0.04994,0.58408 -0.122079,1.40803 -0.160284,1.83096 -0.03824,0.42292 -0.06538,0.77301 -0.06042,0.77801 0.01001,0.0107 0.333429,0.0404 1.585525,0.14859 0.469791,0.0406 0.892602,0.0779 0.939581,0.0827 0.268283,0.0275 0.261305,0.0301 0.277295,-0.11155 z m 2.683828,0.006 c 0.3204,-0.0262 0.2682,0.0374 0.40678,-0.49421 0.0641,-0.24577 0.26521,-1.01262 0.44698,-1.70412 0.18176,-0.69154 0.35209,-1.34243 0.37849,-1.44647 l 0.048,-0.18909 -0.12561,0.0127 c -0.0691,0.006 -0.24009,0.0235 -0.38,0.0368 -0.13991,0.0131 -0.25749,0.0273 -0.26128,0.0312 -0.006,0.005 -0.28393,1.16154 -0.45061,1.8726 -0.16459,0.70209 -0.22523,0.92956 -0.24299,0.91149 -0.0108,-0.0119 -0.0576,-0.10809 -0.10359,-0.21571 -0.0459,-0.10738 -0.19351,-0.4425 -0.32792,-0.74461 -0.13441,-0.30213 -0.32423,-0.73059 -0.421815,-0.95213 -0.316858,-0.7194 -0.310898,-0.70801 -0.37023,-0.70801 -0.143898,0 -0.727591,0.0584 -0.727591,0.073 0,0.01 0.209749,0.47147 0.466121,1.02764 0.256364,0.55621 0.573818,1.24743 0.705445,1.53613 0.13163,0.28871 0.28934,0.63242 0.35047,0.76392 l 0.11112,0.23896 0.11687,-0.0138 c 0.0643,-0.007 0.23587,-0.0237 0.3813,-0.0356 z m 2.21265,-0.20898 c 0.40943,-0.11477 0.36658,-0.0553 0.40227,-0.55992 0.0364,-0.51483 -0.0684,-0.41878 0.69871,-0.64034 0.85075,-0.24568 0.76004,-0.24479 0.93459,-0.01 0.0795,0.10703 0.15514,0.18792 0.1685,0.17965 0.0136,-0.01 0.0166,-0.002 0.007,0.0132 -0.0213,0.0348 0.20289,0.32709 0.24003,0.31296 0.0143,-0.005 0.17443,-0.0515 0.35561,-0.10237 0.41647,-0.11656 0.40243,-0.0907 0.19128,-0.35741 -0.0992,-0.1254 -0.202,-0.25681 -0.22851,-0.29209 -0.24813,-0.33026 -0.33695,-0.43421 -0.35923,-0.42045 -0.0151,0.01 -0.0187,0.004 -0.008,-0.0119 0.01,-0.016 -0.0703,-0.1389 -0.19072,-0.29063 -0.11426,-0.14444 -0.48341,-0.61966 -0.82004,-1.0561 -0.73175,-0.94865 -0.59587,-0.85358 -1.03621,-0.72501 l -0.3655,0.10668 -0.0902,0.9866 c -0.0497,0.54264 -0.12954,1.40957 -0.17756,1.92652 -0.0936,1.00731 -0.0969,1.05816 -0.0689,1.04237 0.01,-0.005 0.16656,-0.052 0.34776,-0.10275 z m 0.4881,-1.72047 c 0,-0.15263 0.0943,-1.39669 0.10671,-1.40919 0.005,-0.004 0.10001,0.11751 0.21282,0.271 0.11275,0.15333 0.21495,0.27263 0.22714,0.26509 0.0123,-0.007 0.015,-0.002 0.007,0.0119 -0.009,0.0139 0.083,0.15865 0.20366,0.32118 0.22137,0.29802 0.24648,0.34429 0.18683,0.34429 -0.018,0 -0.23763,0.0589 -0.4881,0.13091 l -0.45539,0.13094 z m -9.900042,1.28139 c 1.094257,-0.28511 1.068851,-1.5307 -0.04484,-2.1986 -0.477207,-0.2862 -0.551427,-0.33506 -0.66718,-0.43918 -0.45747,-0.41144 0.09201,-0.76823 0.72781,-0.47255 0.257151,0.11952 0.341672,0.23762 0.35548,0.49641 l 0.008,0.14811 0.34469,0.0821 c 0.402403,0.0957 0.376006,0.10691 0.386793,-0.16814 0.04919,-1.25518 -2.186809,-1.81368 -2.636087,-0.6584 -0.22326,0.57405 0.04405,1.01318 0.943634,1.55017 0.678107,0.40475 0.796077,0.60597 0.520557,0.88789 -0.43239,0.44243 -1.301173,0.0587 -1.333399,-0.58874 -0.01048,-0.2113 -0.01132,-0.21362 -0.07476,-0.21478 -0.03525,-4.4e-4 -0.192192,-0.0263 -0.348719,-0.0564 l -0.284595,-0.0554 -0.01437,0.0717 c -0.08579,0.42918 0.249715,1.31007 0.46721,1.22657 0.01842,-0.006 0.02751,-0.004 0.02028,0.01 -0.01844,0.03 0.02183,0.0586 0.218102,0.1558 0.462175,0.22889 1.042066,0.32134 1.411505,0.22509 z m 13.816992,-0.98775 c 0.12081,-0.0562 0.26115,-0.11936 0.31186,-0.13994 0.11045,-0.0448 0.11509,-0.0206 -0.0908,-0.45508 -0.0839,-0.17656 -0.18194,-0.38726 -0.21814,-0.4682 l -0.0656,-0.14718 0.13755,-0.38993 c 0.0759,-0.21447 0.14572,-0.39867 0.15574,-0.40936 0.0107,-0.0119 0.18513,0.0966 0.38911,0.23807 0.20401,0.14158 0.38051,0.25741 0.39223,0.25741 0.0119,0 0.0248,0.01 0.0297,0.0186 0.01,0.0203 0.17709,0.1409 0.59384,0.42532 l 0.26846,0.1832 0.42058,-0.19455 c 0.23131,-0.10702 0.41497,-0.20363 0.40809,-0.21474 -0.006,-0.0119 -0.14122,-0.0994 -0.29854,-0.19645 -0.15736,-0.097 -0.341,-0.21109 -0.40812,-0.25358 -0.0671,-0.0425 -0.21536,-0.13536 -0.32947,-0.2063 -0.11401,-0.0709 -0.24585,-0.15349 -0.29285,-0.18345 -0.37379,-0.23851 -0.80091,-0.50125 -0.81485,-0.50125 -0.01,0 -0.0386,-0.0197 -0.0644,-0.0444 -0.0543,-0.0506 -0.0985,0.10071 0.35249,-1.21074 0.27832,-0.80932 0.30485,-0.74779 -0.21627,-0.50179 l -0.42817,0.20214 -0.136,0.4295 c -0.21892,0.69135 -0.52347,1.64726 -0.53691,1.68525 -0.007,0.0191 -0.0792,-0.1069 -0.16049,-0.28075 -0.27978,-0.59678 -0.37625,-0.8045 -0.46078,-0.99216 -0.0709,-0.15776 -0.0923,-0.18576 -0.13185,-0.17395 -0.0413,0.0129 -0.60101,0.2732 -0.61842,0.2882 -0.004,0.004 0.16235,0.3671 0.36888,0.8088 0.46327,0.99073 0.4862,1.03985 0.68206,1.46225 0.0872,0.188 0.20493,0.44064 0.2617,0.56148 0.0567,0.12088 0.13469,0.28914 0.17314,0.37395 0.0386,0.085 0.0784,0.14922 0.0886,0.14313 0.01,-0.005 0.11723,-0.0572 0.23823,-0.11346 z m -19.279812,-1.15443 c 0.04017,-0.0701 0.101506,-0.17725 0.136296,-0.23768 0.03476,-0.0604 0.341349,-0.59325 0.68128,-1.18407 0.706654,-1.22819 0.643635,-1.13227 0.71457,-1.08768 0.305119,0.19188 0.882744,0.51225 0.89589,0.49688 0.06123,-0.0714 0.292111,-0.50601 0.276219,-0.5199 -0.0106,-0.01 -0.321606,-0.19104 -0.690727,-0.40363 -0.369121,-0.2126 -0.863314,-0.49786 -1.098207,-0.63392 -0.68508,-0.39684 -0.734062,-0.42123 -0.760089,-0.37858 -0.08548,0.14019 -0.264757,0.46772 -0.264082,0.48249 4.48e-4,0.0107 0.209113,0.13703 0.463687,0.28252 0.254573,0.14549 0.462865,0.27184 0.462865,0.28077 0,0.01 -0.09892,0.18653 -0.219787,0.39463 -0.120878,0.20812 -0.214359,0.39274 -0.207717,0.4102 0.0066,0.0173 0.0021,0.0258 -0.0098,0.0181 -0.01736,-0.0119 -0.382628,0.59873 -0.752883,1.25612 -0.02647,0.0469 -0.110633,0.1932 -0.187042,0.32489 -0.168831,0.29103 -0.183828,0.25062 0.169305,0.456 0.349012,0.20296 0.301644,0.1978 0.390286,0.0429 z m -1.870314,-1.33709 c 0.07997,-0.23455 0.273905,-0.79447 0.430972,-1.24431 0.157066,-0.44981 0.365815,-1.04857 0.463884,-1.33055 0.09809,-0.28199 0.195712,-0.56074 0.216987,-0.61951 0.02128,-0.0587 0.03867,-0.11514 0.03867,-0.12578 0,-0.0226 -0.529687,-0.48637 -0.575913,-0.5041 -0.01776,-0.006 -0.112312,0.0316 -0.210169,0.0852 -0.09786,0.0535 -0.414012,0.22085 -0.702598,0.37195 -0.647746,0.3391 -1.367462,0.7174 -1.610706,0.84662 -0.10066,0.0535 -0.368705,0.1941 -0.595633,0.31248 -0.391417,0.20417 -0.410164,0.21719 -0.365143,0.25393 0.02608,0.0211 0.159395,0.13581 0.296207,0.2545 l 0.248752,0.21573 0.299426,-0.16524 c 0.164683,-0.0909 0.340453,-0.19078 0.390591,-0.22196 l 0.09115,-0.0566 0.13029,0.11596 c 0.07164,0.0637 0.182783,0.15999 0.246947,0.21371 0.06417,0.0537 0.129243,0.10929 0.14462,0.12371 0.07926,0.0741 0.476939,0.42035 0.534738,0.46571 0.08611,0.0673 0.09021,0.0413 -0.08011,0.51428 -0.140259,0.38952 -0.144898,0.40966 -0.103734,0.45048 0.06912,0.0683 0.555121,0.48071 0.56047,0.47537 0.0027,-0.002 0.07029,-0.19674 0.150258,-0.43128 z m -0.472387,-1.76134 c -0.120801,-0.10822 -0.289656,-0.25955 -0.375233,-0.33603 l -0.155593,-0.13905 0.546063,-0.30197 c 0.300344,-0.16608 0.588294,-0.32818 0.639892,-0.36018 0.133102,-0.0829 0.0478,0.20693 -0.365548,1.2403 -0.04888,0.12216 -0.03144,0.12836 -0.289581,-0.10298 z m 26.651473,1.19893 c 1.02875,-0.18537 1.77311,-1.44141 1.27951,-2.15912 -0.41445,-0.60258 -0.91951,-0.6517 -1.8589,-0.18068 -0.65991,0.33085 -0.84934,0.36559 -1.0002,0.18341 -0.31703,-0.38289 0.52731,-1.085 0.99038,-0.82357 l 0.14263,0.0808 0.12484,-0.12189 c 0.0685,-0.067 0.19,-0.18193 0.26961,-0.25527 l 0.14472,-0.1334 -0.16792,-0.12333 c -0.95824,-0.70391 -2.62905,0.61033 -2.12894,1.6746 0.30302,0.64495 0.8783,0.70224 1.92311,0.19152 0.72563,-0.35468 0.99016,-0.31734 1.01952,0.14401 0.0405,0.63571 -0.86604,1.07319 -1.34618,0.6497 -0.0423,-0.0374 -0.0584,-0.0259 -0.28673,0.20859 -0.28076,0.28803 -0.2764,0.27472 -0.12599,0.38462 0.34372,0.25109 0.67605,0.34238 1.02048,0.28031 z m -12.17953,-0.40137 c 13.79442,-1.03977 20.82444,-17.35304 12.03043,-27.916829 -0.10615,-0.127567 -0.21528,-0.258704 -0.24243,-0.291428 -1.39211,-1.677997 -3.45132,-3.268947 -5.55262,-4.289951 -4.44947,-2.161965 -9.724808,-2.277975 -14.240092,-0.31315 -0.174496,0.07592 -0.369222,0.160462 -0.43273,0.187853 -0.06451,0.02783 -0.108631,0.06086 -0.09995,0.07492 0.0089,0.01464 0.0036,0.01775 -0.01312,0.0073 -0.02971,-0.01836 -0.778771,0.357618 -1.211317,0.608008 -1.136337,0.657789 -2.162272,1.418977 -3.169466,2.351575 -0.459024,0.425032 -1.07138,1.072769 -1.048767,1.10937 0.0087,0.01425 0.005,0.01908 -0.0083,0.0106 -0.02276,-0.01407 -0.314555,0.314475 -0.657256,0.739949 -0.271797,0.33744 -0.790173,1.05744 -0.790173,1.097508 0,0.01168 -0.0088,0.0251 -0.01991,0.02959 -0.02505,0.01013 -0.198153,0.277803 -0.45689,0.706241 -2.020355,3.345494 -2.819035,7.338484 -2.256056,11.279054 0.453127,3.17164 1.803095,6.15352 3.911633,8.64023 0.667527,0.78723 1.812801,1.87553 2.591742,2.46279 0.161068,0.12139 0.34227,0.258 0.402672,0.30353 0.476097,0.35881 1.283515,0.86241 1.988979,1.24054 0.565803,0.30326 1.017802,0.51262 1.769335,0.81952 2.201797,0.8991 5.027113,1.32925 7.504426,1.14255 z m -1.964565,-1.23499 c -2.89126,-0.13083 -5.735321,-1.06857 -8.114542,-2.67546 -0.571795,-0.3862 -0.885946,-0.62326 -1.41518,-1.06799 -0.160917,-0.13524 -0.300939,-0.2431 -0.311159,-0.23977 -0.01013,0.004 -0.01583,-0.002 -0.01254,-0.0128 0.0031,-0.0107 -0.07625,-0.0951 -0.176937,-0.18798 -0.724737,-0.66914 -1.438858,-1.4663 -2.023535,-2.25885 -0.123825,-0.16785 -0.238086,-0.32165 -0.253916,-0.34178 -0.776046,-0.98734 -1.769815,-3.08676 -2.236132,-4.72404 -0.274331,-0.96324 -0.421754,-1.77356 -0.550751,-3.02731 -0.328279,-3.19056 0.606829,-6.96342 2.426526,-9.790306 0.03473,-0.05394 0.07412,-0.116145 0.08751,-0.138285 0.074,-0.121944 0.329942,-0.486475 0.534495,-0.761239 0.128567,-0.172702 0.226692,-0.325458 0.218036,-0.339461 -0.0086,-0.01403 -0.0046,-0.01868 0.0086,-0.01037 0.01343,0.0082 0.104151,-0.08458 0.201637,-0.206388 0.09749,-0.121803 0.258013,-0.312255 0.356705,-0.423223 0.09871,-0.110958 0.174386,-0.208655 0.168198,-0.217077 -0.0062,-0.0083 -0.0049,-0.01072 0.0027,-0.0054 0.0076,0.0055 0.172851,-0.157562 0.366998,-0.362296 0.194139,-0.204734 0.385819,-0.396527 0.425949,-0.42621 0.0429,-0.03172 0.06604,-0.06602 0.05617,-0.08327 -0.0091,-0.01611 -0.0076,-0.02104 0.0036,-0.01072 0.01096,0.01001 0.09248,-0.0505 0.180846,-0.134671 0.08836,-0.08417 0.242213,-0.22425 0.341934,-0.311309 0.09973,-0.08706 0.198801,-0.174775 0.220172,-0.194916 0.02137,-0.02014 0.06235,-0.05311 0.09107,-0.07324 0.04102,-0.02879 0.616148,-0.478162 0.727666,-0.568589 2.608946,-2.115479 7.094058,-3.367362 10.823455,-3.021032 3.9452,0.366367 7.35328,2.021016 10.16454,4.934956 0.13422,0.13913 0.25228,0.250395 0.26236,0.247257 0.0107,-0.0031 0.0155,0.0036 0.0119,0.01521 -0.004,0.01144 0.064,0.100304 0.15003,0.197292 5.07675,5.733817 5.18635,14.523867 0.25531,20.475907 -0.12391,0.14964 -0.21783,0.27965 -0.2086,0.2889 0.01,0.01 0.005,0.0131 -0.007,0.01 -0.0133,-0.004 -0.12857,0.10714 -0.25578,0.24818 -3.16096,3.50333 -7.76118,5.41314 -12.519945,5.19781 z m 1.598505,-0.53519 c 7.73275,-0.45389 13.86776,-6.46224 14.45793,-14.15952 0.27065,-3.52975 -0.82509,-7.41904 -2.83377,-10.058444 -0.0256,-0.03361 -0.13988,-0.186109 -0.25406,-0.338982 -0.61796,-0.827224 -1.48647,-1.743554 -2.28951,-2.415625 -0.24191,-0.202463 -0.57334,-0.468001 -0.58415,-0.468001 -0.006,0 -0.0461,-0.03035 -0.0868,-0.06743 -0.0406,-0.03709 -0.10555,-0.08623 -0.14449,-0.109219 l -0.0704,-0.04174 -0.0139,0.627998 c -0.0318,1.406477 -0.19064,2.342123 -0.5299,3.118191 -1.03155,2.359742 -2.47293,4.599452 -2.89224,4.494172 -0.44861,-0.11251 -0.24993,-1.15951 0.63668,-3.35471 0.18314,-0.45346 0.22973,-0.63362 0.23005,-0.889914 1.9e-4,-0.125164 -0.067,-0.850202 -0.0803,-0.862792 -0.002,-0.0027 -0.78092,0.01421 -1.72914,0.03753 l -1.72406,0.04245 -0.22832,0.147188 c -0.32789,0.211371 -0.41726,0.257394 -0.77539,0.399314 -0.39542,0.15669 -0.70397,0.342947 -1.271077,0.767294 -0.143535,0.10743 -0.69023,0.53988 -0.780932,0.61777 l -0.08539,0.0733 0.175003,0.5337 c 0.264789,0.80749 0.391651,1.43845 0.36256,1.80319 -0.04997,0.62655 -0.251209,1.60677 -0.471122,2.29489 -0.0709,0.22189 -0.02551,2.20026 0.05342,2.32805 0.03455,0.0559 0.577656,0.44453 0.601057,0.43006 0.01352,-0.007 0.0216,-0.004 0.01792,0.007 -0.0036,0.0127 0.08662,0.0922 0.200736,0.17675 0.900505,0.66809 1.176125,1.01193 1.780355,2.22098 0.17783,0.35584 0.33195,0.65796 0.3425,0.67137 0.19643,0.2501 0.95534,1.92765 1.03821,2.29487 0.0421,0.18694 0.18798,0.50599 0.38257,0.83716 0.28219,0.48024 1.04991,1.58702 1.09255,1.57508 0.009,-0.002 0.0169,0.01 0.0169,0.0264 0,0.0673 0.58054,0.80302 0.76918,0.97441 0.50187,0.45606 0.91049,1.41846 0.75527,1.77886 -0.1583,0.36758 -0.81682,1.00906 -1.12325,1.09424 -0.40128,0.11131 -1.42302,-0.16047 -1.55925,-0.41505 -0.0445,-0.0834 -0.0242,-0.38102 0.0572,-0.84197 0.0686,-0.3886 0.0909,-0.89167 0.0518,-1.16584 -0.0243,-0.16991 -0.3905,-0.57902 -0.73392,-0.81984 -0.34412,-0.24132 -0.73788,-0.6879 -1.3318,-1.51046 -0.0989,-0.13701 -0.19071,-0.24243 -0.20394,-0.23425 -0.0133,0.007 -0.0164,0.002 -0.007,-0.0127 0.009,-0.0151 -0.0458,-0.10797 -0.12435,-0.20879 -0.17361,-0.22261 -0.54716,-0.70654 -0.77422,-1.00299 -1.576232,-2.0579 -2.047508,-2.47742 -2.78472,-2.47878 -1.239921,-0.002 -2.133332,0.40938 -3.212177,1.48011 -0.363039,0.36033 -0.353265,0.33736 -0.251316,0.59022 0.154122,0.38215 0.372682,1.64614 0.562242,3.2515 0.04177,0.35398 0.04177,0.35398 0.205395,0.64693 0.923303,1.65347 0.831546,1.85554 -0.965667,2.12644 -0.808215,0.1219 -1.094021,0.0947 -1.265041,-0.11981 -0.119901,-0.15044 0.03873,-0.3314 0.379319,-0.43289 0.396037,-0.11787 0.899681,-0.43981 0.899681,-0.57486 0,-0.38345 -0.300501,-1.11022 -0.686462,-1.66013 -0.318893,-0.45434 -0.662253,-1.15886 -1.020075,-2.09301 -0.408414,-1.06624 -0.434779,-1.35397 -0.172156,-1.87888 0.363532,-0.72659 1.602825,-2.24753 2.38885,-2.93172 0.361626,-0.3148 0.438516,-0.44651 0.344004,-0.58927 -0.07314,-0.11025 -0.03975,-0.18298 0.404982,-0.88026 l 0.203296,-0.31872 -0.147863,-0.37707 c -0.2297,-0.58575 -0.618215,-1.62428 -0.693623,-1.85408 -0.07774,-0.2369 -0.08364,-0.43057 -0.05964,-1.96531 0.01538,-0.98446 -0.0045,-1.09785 -0.200241,-1.14435 -0.134304,-0.0318 -0.288686,-0.35923 -0.325674,-0.69056 l -0.01677,-0.15037 0.277452,-0.29852 c 0.680204,-0.73184 0.680101,-0.73171 0.680119,-0.85577 5e-6,-0.0617 0.0064,-0.19359 0.01455,-0.29296 l 0.01455,-0.18068 -0.176218,-0.195319 c -0.0969,-0.107428 -0.185823,-0.192558 -0.197557,-0.189201 -0.01167,0.0031 -0.01862,-0.0031 -0.01521,-0.01428 0.0036,-0.01108 -0.149803,-0.196204 -0.340351,-0.411107 l -0.346648,-0.390605 -0.517743,-0.01611 c -0.284756,-0.0088 -0.74934,-0.01614 -1.032405,-0.01619 -0.927222,-1.85e-4 -1.204996,-0.02094 -1.274625,-0.09537 -0.2623,-0.280381 -0.110275,-1.103683 0.192346,-1.041728 0.03029,0.0062 0.456709,0.01811 0.947546,0.0264 l 0.892432,0.01513 0.09595,-0.245196 0.09596,-0.245197 0.114206,-4.48e-4 c 0.512692,-0.0018 2.401751,0.08011 2.416428,0.104904 0.0093,0.01593 0.06488,0.09937 0.123243,0.185427 l 0.106128,0.156482 0.194099,-0.0045 c 0.430605,-0.0099 1.80645,-0.05161 2.201221,-0.0665 l 0.420813,-0.01587 0.08207,-0.113022 c 0.999396,-1.3759 1.97182,-1.410349 3.09085,-0.109504 l 0.25625,0.297884 0.24404,0.0018 c 0.13423,8.94e-4 0.85189,-0.01487 1.5948,-0.03513 l 1.35075,-0.03682 0.28185,-0.152018 0.28184,-0.152022 -0.0156,-0.476224 c -0.008,-0.261919 -0.0161,-0.934968 -0.0167,-1.495658 l -9.1e-4,-1.019437 -0.14743,-0.07447 c -3.84012,-1.939198 -8.95523,-1.99632 -12.992415,-0.145087 -1.093823,0.501569 -3.10084,1.726915 -3.069838,1.87423 0.0027,0.01344 -0.0096,0.02303 -0.02795,0.0212 -0.125168,-0.0123 -2.002193,1.737592 -1.951652,1.819398 0.0097,0.01566 0.0067,0.02156 -0.0066,0.01337 -0.04134,-0.02555 -0.641887,0.693067 -1.053486,1.260585 -0.355033,0.489512 -0.650115,0.953923 -1.003077,1.578683 -0.124601,0.22055 -0.46549,0.90124 -0.556297,1.11082 -0.04652,0.10742 -0.122637,0.2832 -0.169095,0.39062 -1.967893,4.55019 -1.430236,10.15724 1.374176,14.33085 0.394266,0.58673 0.538182,0.78221 0.570216,0.77451 0.0153,-0.004 0.02098,0.004 0.01269,0.0178 -0.0083,0.0135 0.09354,0.15944 0.22648,0.32411 0.779763,0.96577 1.740901,1.90303 2.689296,2.62246 0.264476,0.2006 0.896315,0.64319 0.918242,0.64319 0.0068,0 0.04734,0.0259 0.09008,0.058 0.270091,0.20238 1.282597,0.76009 1.847021,1.01744 2.321608,1.05846 4.829426,1.53529 7.309189,1.38974 z m 4.86743,-4.2713 c 0.0311,-0.0164 0.0496,-0.0656 0.0617,-0.16391 0.0253,-0.20254 0.10222,-0.4338 0.17195,-0.51666 0.15959,-0.18971 -0.096,-0.55874 -0.74437,-1.07496 -0.32218,-0.25646 -0.29863,-0.26283 -0.34605,0.0936 -0.0372,0.27963 -0.003,0.49096 0.12339,0.77717 0.052,0.11692 0.14187,0.32228 0.19978,0.456 0.121,0.27941 0.19032,0.36752 0.32733,0.41601 0.11818,0.0418 0.14872,0.0436 0.20615,0.0127 z m -10.819912,-2.71064 c 0.08387,-0.25099 0.06399,-0.48642 -0.08138,-0.96434 -0.352931,-1.16015 -0.471955,-1.63804 -0.485793,-1.95057 -0.02302,-0.51954 -0.0341,-0.54652 -0.474771,-1.15518 l -0.163525,-0.22586 -0.147812,0.15807 c -0.426578,0.4562 -0.449185,0.92875 -0.08116,1.69652 0.155008,0.32337 0.47041,0.91246 0.498171,0.93044 0.01268,0.007 0.01991,0.0189 0.01605,0.0246 -0.0039,0.005 0.06528,0.1523 0.153606,0.32685 0.08834,0.17457 0.168682,0.34484 0.178567,0.37843 0.03198,0.10869 0.303318,0.64871 0.404872,0.8059 0.109369,0.16928 0.118864,0.16797 0.183207,-0.0248 z m 8.082032,-2.05198 c 0.22001,-0.44318 0.17896,-0.76201 -0.19789,-1.53682 -0.1143,-0.235 -0.24719,-0.52613 -0.29534,-0.64698 -0.16809,-0.42189 -0.22983,-0.48123 -0.58513,-0.56251 l -0.24584,-0.0561 -0.12203,0.0805 c -0.2561,0.16866 -0.40927,0.36735 -0.40706,0.52802 0.003,0.23763 0.4203,0.86671 0.92753,1.39916 0.15357,0.16118 0.34519,0.39447 0.43112,0.52488 0.28184,0.42768 0.38771,0.4855 0.49463,0.27012 z m -7.713703,-2.12424 c 0.191507,-0.0724 0.282419,-0.2479 0.324695,-0.62736 0.04263,-0.38259 -0.01084,-0.4834 -0.379293,-0.71284 -0.09911,-0.0615 -0.451894,0.17398 -0.542082,0.36219 -0.04502,0.094 -0.06167,0.58115 -0.02439,0.71379 0.05527,0.19672 0.405278,0.3456 0.621076,0.26422 z m 5.270367,-1.45081 c 0.639766,-0.19006 0.840756,-0.64907 0.460766,-1.0523 -0.12968,-0.13763 -0.15579,-0.18028 -0.16873,-0.27562 -0.0579,-0.42649 -0.08703,-0.44495 -0.728412,-0.46084 l -0.52149,-0.0128 -0.08046,0.10154 c -0.281242,0.35525 -0.281062,0.8896 4.5e-4,1.36851 0.154253,0.26241 0.692178,0.43428 1.037848,0.33156 z m -3.390552,-0.27266 c 0.192213,-0.1556 0.33045,-0.54675 0.267756,-0.7576 -0.221805,-0.74594 -0.324927,-0.8266 -0.95908,-0.75017 -0.145296,0.0173 -0.437953,0.39669 -0.497351,0.64438 -0.104019,0.43376 0.85709,1.13188 1.188675,0.86339 z m 1.743907,-0.55774 c -0.01156,-0.45903 -0.04409,-1.10644 -0.102066,-2.03853 -0.0365,-0.58635 -0.04885,-1.01138 -0.0436,-1.50145 l 0.0071,-0.68357 0.0802,-0.16408 c 0.0509,-0.10405 0.129624,-0.21118 0.215371,-0.29299 0.333805,-0.31831 0.387459,-0.48061 0.472938,-1.43058 0.116374,-1.29352 0.08819,-1.42727 -0.464521,-2.20164 -0.294038,-0.41198 -0.335886,-0.48568 -0.464463,-0.81787 -0.176103,-0.45498 -0.294766,-0.62255 -0.440865,-0.62255 -0.309065,0 -0.210491,-0.437982 0.122778,-0.545516 0.850957,-0.274578 0.74077,-0.882032 -0.1961,-1.081062 -0.617199,-0.131116 -0.803722,0.04769 -0.888214,0.851447 l -0.01477,0.140376 h -0.268635 c -0.268631,0 -0.268631,0 -0.255798,-0.06711 0.06333,-0.331252 0.04762,-0.429054 -0.09184,-0.571497 -0.08794,-0.08979 -0.108333,-0.130248 -0.133453,-0.264675 -0.08172,-0.43703 -0.216611,-0.70642 -0.369352,-0.737681 -0.04695,-0.0097 -0.185977,-0.03976 -0.308888,-0.06695 -0.462997,-0.102545 -0.675455,0.111257 -0.678244,0.682599 -0.0021,0.47378 0.08123,0.568002 0.819403,0.923983 0.624922,0.301367 0.570409,0.231807 0.570409,0.727916 0,0.40059 0.0018,0.41459 0.06822,0.54997 0.07272,0.1481 0.319251,0.39828 0.364774,0.37013 0.01432,-0.009 0.0201,-0.006 0.01278,0.006 -0.0071,0.0121 0.200868,0.1649 0.462579,0.33947 0.261712,0.17455 0.546227,0.37008 0.63226,0.4345 0.08654,0.0648 0.168799,0.10947 0.184144,0.10004 0.01593,-0.01 0.02103,-0.007 0.01201,0.008 -0.0086,0.014 0.04183,0.07 0.112157,0.1244 0.226347,0.17523 0.328692,0.29846 0.408979,0.49246 0.307323,0.74258 0.236501,1.05376 -0.186032,0.81737 -0.305985,-0.17121 -0.799068,-0.0123 -0.944752,0.30407 -0.139449,0.30302 -0.337697,0.38886 -0.497871,0.21562 -0.08514,-0.0922 -0.08751,-0.2972 -0.0036,-0.30692 0.08443,-0.01 0.32785,-0.15861 0.320014,-0.19563 -0.0031,-0.0156 0.0075,-0.0262 0.02439,-0.0228 0.04417,0.008 0.04767,-0.10297 0.01239,-0.39673 l -0.03074,-0.25635 -0.207433,-0.0419 c -0.367917,-0.0742 -0.695021,-0.10116 -0.773446,-0.0635 l -0.06853,0.0329 v 0.56305 c 0,0.56302 0,0.56302 -0.0661,0.65877 -0.142193,0.20594 -0.221078,1.11875 -0.113777,1.31643 0.02187,0.0403 0.108464,0.31495 0.192387,0.61034 0.412518,1.45167 1.073828,2.7391 1.460499,2.84328 0.17912,0.0482 0.170765,0.0173 0.199148,0.73332 0.01411,0.35583 0.03144,0.69393 0.03863,0.7513 l 0.01295,0.10429 0.407194,-0.006 0.407194,-0.006 z m 0.839998,-9.61748 c 0.167058,-0.0918 0.414303,-0.26897 0.851979,-0.610309 0.134228,-0.104677 0.275604,-0.21376 0.314164,-0.242414 0.43097,-0.320183 1.17232,-1.095105 1.31886,-1.378597 0.17517,-0.338869 -0.55329,-0.837062 -0.92529,-0.632813 -0.16927,0.09295 -0.680202,0.603161 -1.333869,1.332017 -0.176957,0.197314 -0.458236,0.494388 -0.625059,0.660168 -0.364453,0.362166 -0.49814,0.649868 -0.429357,0.924008 0.02757,0.10985 0.599467,0.0739 0.828572,-0.052 z m 7.748483,-0.12918 c 0.13234,-0.11139 0.32017,-0.601239 0.53136,-1.385982 0.17248,-0.640798 0.19697,-0.78765 0.2476,-1.484669 0.0602,-0.830462 0.15959,-1.566482 0.2584,-1.915571 0.006,-0.02205 0.0393,-0.0124 0.11294,0.03333 0.0572,0.03544 0.0879,0.04825 0.0674,0.02839 -0.12004,-0.118469 -1.61073,-1.007803 -1.61073,-0.960978 0,0.0058 0.0716,0.05065 0.15865,0.09949 l 0.15863,0.08875 -1.9e-4,0.261253 c -1.8e-4,0.319455 -0.0401,1.418197 -0.0736,2.031245 -0.0405,0.735976 -0.0922,1.165722 -0.18464,1.532347 -0.2931,1.161716 -0.11544,2.050805 0.3339,1.672445 z M 83.099315,123.4457 c 0.04236,-0.14424 0.110143,-0.37217 0.150699,-0.50643 0.177359,-0.58723 0.222888,-0.90413 0.167591,-1.16644 l -0.01947,-0.0922 0.157618,0.10785 c 0.578467,0.39617 1.262626,0.2132 1.559979,-0.41728 0.230722,-0.48917 0.105902,-0.76389 -0.840822,-1.85057 -0.245974,-0.28235 -0.491155,-0.56472 -0.544845,-0.6275 l -0.09762,-0.11407 -0.122027,0.10632 c -0.06711,0.0585 -0.473448,0.41132 -0.902969,0.78403 -0.429524,0.37271 -0.973136,0.84469 -1.20803,1.04885 -0.234898,0.20415 -0.45921,0.39849 -0.498477,0.43182 l -0.07139,0.0605 0.238265,0.27224 c 0.287874,0.32891 0.165614,0.3622 0.841919,-0.22941 0.64802,-0.56688 0.574934,-0.53874 0.758216,-0.29182 0.243482,0.32805 0.242038,0.35368 -0.08841,1.57022 -0.157519,0.57996 -0.173485,0.49042 0.155376,0.87112 0.314979,0.36462 0.271378,0.35954 0.364342,0.0428 z m 0.760919,-2.12941 c -0.107808,-0.0328 -0.225912,-0.14196 -0.551722,-0.51102 -0.170807,-0.19351 -0.324285,-0.36573 -0.341067,-0.38277 -0.04648,-0.0472 -0.03783,-0.0623 0.102912,-0.18089 0.07173,-0.0604 0.125194,-0.11823 0.118757,-0.12876 -0.0063,-0.0107 -0.0027,-0.0157 0.0083,-0.0127 0.03605,0.0119 0.203227,-0.13196 0.186799,-0.16071 -0.0087,-0.0151 -0.0071,-0.0199 0.0036,-0.0107 0.01048,0.0107 0.06888,-0.026 0.129372,-0.0793 0.142273,-0.12527 0.09687,-0.1528 0.484244,0.29359 0.455684,0.5251 0.507351,0.62707 0.445428,0.87906 -0.04493,0.18285 -0.386752,0.35388 -0.58659,0.29352 z m 31.595476,2.03799 c 0.0907,-0.12087 0.19139,-0.24829 0.224,-0.28322 l 0.0592,-0.0633 -0.16582,-0.26122 c -0.0914,-0.14366 -0.19999,-0.31738 -0.24174,-0.38608 l -0.0758,-0.12488 0.26983,-0.34382 c 0.14841,-0.18912 0.35627,-0.45496 0.46191,-0.59074 l 0.19205,-0.24688 0.43008,0.13117 c 0.23654,0.072 0.43831,0.12281 0.44834,0.11251 0.0107,-0.0107 0.12225,-0.15041 0.2492,-0.31156 l 0.2309,-0.29293 -0.0891,-0.0292 c -0.049,-0.0157 -0.62719,-0.18435 -1.28491,-0.37431 -0.6577,-0.18999 -1.40448,-0.40618 -1.6595,-0.48044 -0.73278,-0.21343 -0.79965,-0.2306 -0.81751,-0.20998 -0.0593,0.0684 -0.3886,0.49418 -0.42103,0.54432 -0.0388,0.0598 -0.0336,0.071 0.33242,0.68357 0.33936,0.56812 1.21606,2.0441 1.5277,2.572 0.0699,0.1186 0.13599,0.20676 0.14634,0.19533 0.0107,-0.0119 0.0928,-0.11964 0.18346,-0.24051 z m -0.84262,-2.15318 c -0.16554,-0.26591 -0.34385,-0.54749 -0.39621,-0.62575 -0.12458,-0.18615 -0.1737,-0.19088 0.61689,0.0592 0.78092,0.24717 0.73001,0.22534 0.67267,0.2887 -0.0238,0.0264 -0.035,0.0604 -0.0243,0.0772 0.0119,0.0179 0.007,0.0232 -0.007,0.0135 -0.0147,-0.01 -0.13327,0.12267 -0.27598,0.30748 -0.13753,0.178 -0.25768,0.33247 -0.26705,0.34325 -0.01,0.0119 -0.15252,-0.19792 -0.31807,-0.46387 z m -33.697064,-1.59559 c 0.454436,-0.55912 1.020158,-1.2543 1.609681,-1.97812 0.115683,-0.14203 0.223921,-0.28 0.240526,-0.30661 0.02527,-0.0405 -0.207632,-0.54118 -0.331388,-0.71243 -0.0031,-0.004 -0.333417,0.0363 -0.734056,0.0902 -0.400635,0.0538 -1.272038,0.17094 -1.936454,0.26025 -0.664418,0.0894 -1.222389,0.16675 -1.239934,0.17211 -0.02315,0.006 -0.01048,0.0484 0.04555,0.15036 0.04263,0.0778 0.125545,0.22932 0.184306,0.33769 l 0.10682,0.19706 0.408913,-0.0678 c 0.2249,-0.0374 0.425382,-0.068 0.445514,-0.0685 0.04134,-9e-4 0.03011,-0.0191 0.402969,0.65805 0.151528,0.27526 0.295386,0.53506 0.319677,0.57736 0.04416,0.0768 0.04416,0.0768 -0.09319,0.23338 -0.516117,0.58807 -0.500818,0.44848 -0.122313,1.11618 l 0.06127,0.10798 0.06354,-0.0728 c 0.03494,-0.0401 0.290773,-0.35234 0.568508,-0.69403 z M 80.650039,118.038 c -0.136017,-0.24484 -0.242473,-0.44997 -0.236566,-0.4559 0.06444,-0.0643 1.474448,-0.24041 1.41692,-0.17679 -0.02232,0.0247 -0.03231,0.0531 -0.02222,0.063 0.01001,0.0107 0.0055,0.0145 -0.01025,0.0107 -0.01579,-0.004 -0.217303,0.21159 -0.44784,0.48014 -0.230534,0.26856 -0.426689,0.49635 -0.435898,0.50625 -0.0091,0.0107 -0.128036,-0.18231 -0.26406,-0.42714 z m 37.645851,1.51678 c 0.0835,-0.16289 0.14597,-0.30172 0.13916,-0.30854 -0.0119,-0.0119 -0.38174,-0.20035 -1.95988,-0.99973 -0.33881,-0.17164 -0.60487,-0.31579 -0.5912,-0.32037 0.0136,-0.004 0.21948,0.0363 0.4574,0.0909 1.40974,0.32293 2.36567,0.54357 2.40072,0.55411 0.04,0.0119 0.3765,-0.57404 0.35792,-0.62322 -0.004,-0.0119 -0.33708,-0.30802 -0.73974,-0.65991 -0.40268,-0.3519 -0.77747,-0.67995 -0.83285,-0.72902 -0.0554,-0.049 -0.22734,-0.19905 -0.38211,-0.33333 -0.15477,-0.13428 -0.27758,-0.24806 -0.27293,-0.25285 0.007,-0.007 0.97238,0.47233 1.46347,0.72902 0.45556,0.23811 1.1143,0.56562 1.12152,0.55757 0.0228,-0.0254 0.30926,-0.58684 0.30227,-0.59243 -0.004,-0.004 -0.16756,-0.0869 -0.36219,-0.18465 -0.19464,-0.0978 -0.46368,-0.23539 -0.5979,-0.30553 -0.57876,-0.30248 -2.33514,-1.18758 -2.34169,-1.18006 -0.004,0.004 -0.11604,0.22509 -0.24933,0.49012 l -0.24217,0.48189 0.11092,0.10655 c 0.12741,0.12242 0.40817,0.37483 1.23945,1.11374 0.32426,0.28824 0.58529,0.52835 0.58007,0.53359 -0.005,0.005 -0.24356,-0.0411 -0.52958,-0.10249 -0.28605,-0.0615 -0.85297,-0.18389 -1.25983,-0.27164 -0.87265,-0.18828 -0.73341,-0.23497 -1.02502,0.34374 l -0.23933,0.47498 0.34311,0.1797 c 0.18874,0.0988 0.77812,0.40093 1.30979,0.67126 0.53165,0.27031 1.11369,0.56779 1.29342,0.66105 0.17976,0.0935 0.33316,0.17005 0.34089,0.17066 0.007,4.3e-4 0.0824,-0.13219 0.16562,-0.29506 z m -39.616777,-3.54703 c 0.661781,-0.21388 2.89678,-0.94027 2.918194,-0.94844 0.01179,-0.004 -0.188711,-0.6742 -0.208369,-0.69527 -0.0031,-0.004 -0.30675,0.0927 -0.674785,0.21325 -0.368045,0.12062 -0.68187,0.21946 -0.697397,0.21965 -0.01552,1.8e-4 -0.112241,-0.26056 -0.214916,-0.57947 -0.102674,-0.31887 -0.204617,-0.63176 -0.226536,-0.69523 -0.0501,-0.14509 -0.120685,-0.10631 0.642331,-0.35197 0.794496,-0.25569 0.72388,-0.19317 0.610209,-0.54001 -0.145102,-0.44272 -0.119708,-0.40231 -0.227062,-0.36122 -0.05064,0.0192 -0.487464,0.16309 -0.970676,0.31939 -0.483213,0.15628 -1.109186,0.35954 -1.391061,0.45168 -0.281876,0.0922 -0.636502,0.20747 -0.788066,0.25632 -0.225362,0.0728 -0.27321,0.0961 -0.262619,0.12958 0.007,0.0224 0.05975,0.17917 0.116923,0.34836 l 0.103996,0.30759 0.732137,-0.23864 c 0.402678,-0.13128 0.749141,-0.24532 0.769924,-0.2534 0.03326,-0.013 0.487691,1.28492 0.486867,1.39047 -9e-5,0.0133 -0.337832,0.13324 -0.750513,0.2662 -0.412677,0.13299 -0.757062,0.24836 -0.765296,0.25635 -0.0175,0.0169 0.197677,0.68594 0.220663,0.68594 0.0085,0 0.267757,-0.0818 0.576043,-0.18113 z m 41.499367,-0.26441 c 5e-5,-0.004 0.0436,-0.17059 0.0964,-0.37163 0.0529,-0.20098 0.0882,-0.37129 0.0778,-0.37839 -0.0107,-0.006 -0.17437,-0.1214 -0.36487,-0.25411 -0.1905,-0.13266 -0.34643,-0.248 -0.3465,-0.25634 -2.8e-4,-0.0368 0.37363,-1.40856 0.38834,-1.42479 0.01,-0.0107 0.21141,-0.0388 0.44981,-0.0641 0.23838,-0.0258 0.43743,-0.0503 0.44231,-0.0552 0.0367,-0.0369 0.20017,-0.75356 0.17204,-0.75356 -0.0397,0 -0.42639,0.0455 -2.39195,0.28187 -0.83221,0.10012 -1.52133,0.18193 -1.5314,0.18195 -0.0107,1e-5 -0.018,0.0161 -0.018,0.0361 0,0.0195 -0.0391,0.1801 -0.0868,0.35629 -0.1089,0.40224 -0.15406,0.32311 0.42841,0.75118 1.28498,0.94441 1.78125,1.3085 2.08522,1.52988 0.0922,0.0671 0.17966,0.11822 0.19431,0.11382 0.0147,-0.004 0.019,-4.6e-4 0.0107,0.01 -0.0231,0.023 0.1964,0.1876 0.22603,0.16929 0.0131,-0.007 0.0207,-0.004 0.017,0.007 -0.006,0.0232 0.10044,0.12488 0.13364,0.12632 0.0107,4.3e-4 0.0182,-0.002 0.0182,-0.005 z m -1.1619,-1.68596 c -0.0388,-0.0328 -0.13101,-0.0986 -0.20483,-0.14722 -0.0741,-0.0485 -0.20012,-0.13557 -0.28065,-0.19354 -0.15687,-0.11287 -0.43606,-0.30904 -0.57031,-0.40062 -0.10579,-0.0721 -0.14,-0.065 0.68992,-0.14023 0.83175,-0.0749 0.73905,-0.11203 0.63967,0.256 -0.0452,0.16696 -0.10139,0.38044 -0.12549,0.47444 -0.0549,0.2154 -0.0623,0.22303 -0.14828,0.15117 z m -40.754155,-2.1495 c 0.207846,-0.0954 0.481046,-0.3649 0.438827,-0.43322 -0.0074,-0.0119 -0.0027,-0.0219 0.01049,-0.0219 0.01326,0 0.03756,-0.0604 0.05414,-0.13427 0.03561,-0.15916 0.04369,-0.16185 0.128192,-0.0431 0.03569,0.0503 0.06491,0.082 0.06491,0.0697 0,-0.0119 0.02137,0.005 0.0475,0.0391 0.327503,0.41649 1.182331,0.1845 1.396097,-0.37889 0.109989,-0.28985 -0.07926,-2.40927 -0.215103,-2.40927 -0.111109,0 -3.596753,0.43231 -3.612482,0.44806 -0.01144,0.0119 0.145105,1.29116 0.213974,1.74816 0.06512,0.43208 0.162844,0.75509 0.218111,0.72093 0.01282,-0.007 0.01762,4.7e-4 0.01049,0.0187 -0.01717,0.0449 0.185902,0.24206 0.330141,0.32058 0.280782,0.15287 0.652198,0.17524 0.914617,0.055 z m -0.596695,-0.72813 c -0.119732,-0.0618 -0.206544,-0.17298 -0.244007,-0.31218 -0.04972,-0.18469 -0.164253,-1.17695 -0.13677,-1.18481 0.05592,-0.0158 0.968072,-0.1162 0.975588,-0.10713 0.01943,0.0233 0.11367,0.93096 0.113229,1.09056 -0.0013,0.43932 -0.355231,0.69615 -0.708029,0.51368 z m 1.543177,-0.33733 c -0.09104,-0.0554 -0.166056,-0.16651 -0.202433,-0.2995 -0.03486,-0.12745 -0.147392,-1.02481 -0.130634,-1.04175 0.01156,-0.0119 0.844126,-0.12282 0.856091,-0.11418 0.02492,0.0177 0.1222,1.09858 0.106498,1.18335 -0.05065,0.27351 -0.388097,0.4194 -0.629531,0.27213 z m 41.400583,0.50283 c 0.51118,-0.13615 0.76388,-0.51652 0.76408,-1.14992 1.9e-4,-0.77635 -0.37216,-1.10505 -1.3416,-1.18429 -0.91688,-0.0747 -2.3081,-0.16514 -2.32183,-0.15058 -0.01,0.01 -0.0231,0.17217 -0.0328,0.36241 l -0.0169,0.34584 0.13032,0.0143 c 0.0715,0.007 0.61898,0.0474 1.2163,0.0879 1.66947,0.11262 1.7461,0.13615 1.74409,0.53238 -10e-4,0.30133 -0.12547,0.42907 -0.46068,0.47479 l -0.2096,0.0288 v 0.11275 c 0,0.0621 0.006,0.21347 0.0156,0.33639 l 0.0156,0.22347 0.18549,-2.7e-4 c 0.10198,-2.1e-4 0.24219,-0.0152 0.3115,-0.0341 z m -41.589498,-5.05483 c 0.338494,-0.1419 0.499501,-0.58498 0.340973,-0.93839 -0.298277,-0.66488 -1.239046,-0.44539 -1.240938,0.28954 -0.0013,0.49766 0.462671,0.83214 0.899965,0.64885 z m 40.670348,-0.004 c 0.64763,-0.26909 0.4537,-1.32704 -0.24332,-1.32704 -0.15769,0 -0.35223,0.062 -0.32628,0.10393 0.0107,0.0156 0.004,0.0181 -0.0155,0.006 -0.0467,-0.0289 -0.23281,0.18596 -0.27914,0.32198 -0.19754,0.57993 0.3236,1.11949 0.8643,0.89484 z m -40.401508,-2.09819 c 0.388128,-0.22753 0.471618,-0.73849 0.175644,-1.07484 -0.414272,-0.47082 -1.126247,-0.17654 -1.127447,0.466 -8.93e-4,0.52617 0.522102,0.86076 0.951803,0.60884 z m 40.141528,0.0478 c 0.45044,-0.15354 0.59636,-0.76995 0.2684,-1.13386 -0.39209,-0.4351 -1.0703,-0.18253 -1.12481,0.41892 -0.0447,0.49216 0.40611,0.86842 0.85641,0.71494 z m -2.85774,-3.62633 c 0.80973,-0.37235 1.10144,-0.50805 1.77148,-0.824037 0.25957,-0.122412 0.47919,-0.217947 0.48808,-0.212294 0.01,0.0055 0.0875,0.165049 0.17446,0.354227 0.0872,0.189174 0.16534,0.341154 0.17396,0.337734 0.0403,-0.0159 0.33945,-0.437198 0.32604,-0.458895 -0.007,-0.01353 -0.002,-0.02156 0.0132,-0.01793 0.10032,0.02365 0.0726,-0.07828 -0.14762,-0.543169 -0.12393,-0.261521 -0.26117,-0.552404 -0.30499,-0.64639 -0.28661,-0.615041 -0.4188,-0.870663 -0.56461,-1.091914 -0.091,-0.137962 -0.17758,-0.272811 -0.19263,-0.299666 -0.38114,-0.680961 -1.97995,-2.988989 -2.04334,-2.949779 -0.0137,0.0085 -0.0175,0.0036 -0.01,-0.01084 0.0217,-0.03495 -0.42187,-0.619866 -0.45463,-0.599605 -0.0148,0.0091 -0.018,0.0039 -0.007,-0.01306 0.0119,-0.01783 -0.15803,-0.216636 -0.44423,-0.522562 -0.25408,-0.271605 -0.5665,-0.60769 -0.6943,-0.746845 -0.12779,-0.139158 -0.23709,-0.249021 -0.24294,-0.244137 -0.01,0.0071 -0.24197,-0.173578 -0.28825,-0.223272 -0.006,-0.0071 -0.31422,-0.264352 -0.68335,-0.571442 -0.3691,-0.307082 -0.71505,-0.59912 -0.76872,-0.648968 -0.0537,-0.04985 -0.22941,-0.182051 -0.39049,-0.29378 -0.16105,-0.111722 -0.48858,-0.341288 -0.72778,-0.510126 -0.51044,-0.360239 -0.50777,-0.358611 -1.40761,-0.855973 -0.38253,-0.21144 -0.89378,-0.495269 -1.13611,-0.630735 -0.24231,-0.135469 -0.45921,-0.25346 -0.482,-0.262205 -0.0747,-0.0287 -0.0612,0.679526 0.0135,0.716836 0.0303,0.01505 0.12081,0.06468 0.20132,0.110291 0.0807,0.0456 0.28008,0.156449 0.44344,0.246302 l 0.29704,0.16337 -0.21502,0.382814 c -0.24183,0.430588 -0.24454,0.433402 -0.39323,0.410978 -0.10282,-0.01548 -0.10949,-0.02156 -0.14445,-0.13156 -0.02,-0.06344 -0.0499,-0.112687 -0.0661,-0.109492 -0.0164,0.0031 -0.0238,-0.0093 -0.0162,-0.02888 0.0429,-0.111412 -0.27663,-0.146256 -0.38127,-0.04157 -0.18152,0.181596 -0.17818,0.336403 0.036,1.652013 0.0742,0.456275 0.14149,0.871203 0.14957,0.922057 0.0119,0.07117 0.0241,0.08969 0.055,0.0804 0.0223,-0.0066 0.11425,-0.03029 0.20487,-0.05267 0.1468,-0.03619 0.16317,-0.04617 0.15243,-0.09264 -0.006,-0.0286 -0.0614,-0.332174 -0.12212,-0.674576 -0.0604,-0.342405 -0.11568,-0.640845 -0.12289,-0.663202 -0.0119,-0.03598 0.0201,-0.04188 0.27487,-0.05127 0.15826,-0.0057 0.31196,-0.01894 0.34156,-0.02906 0.0454,-0.01552 0.0562,-0.0075 0.0704,0.05127 0.0559,0.23209 0.23809,0.45719 0.46615,0.57613 0.16431,0.08568 0.43715,0.183406 0.45563,0.163202 0.01,-0.0099 0.31975,-0.564248 0.37716,-0.673011 0.0268,-0.05093 0.0249,-0.05161 -0.0755,-0.02822 -0.27564,0.0641 -0.65746,-0.03696 -0.85338,-0.225886 l -0.12172,-0.117383 0.0728,-0.129952 c 0.0403,-0.07146 0.16355,-0.292267 0.2742,-0.490654 l 0.20121,-0.360702 0.1008,0.05841 c 0.0554,0.03209 0.24355,0.138735 0.41805,0.236928 0.1745,0.09822 0.32975,0.195859 0.34502,0.217043 0.0151,0.02117 0.10031,0.0878 0.18913,0.147998 0.0889,0.06021 0.16138,0.115631 0.16138,0.123147 0,0.01315 -1.15584,1.675907 -1.42138,2.044829 -0.0704,0.09804 -0.1318,0.18821 -0.1361,0.20038 -0.006,0.01873 0.12288,0.378373 0.25674,0.712903 l 0.0368,0.09164 0.17662,-0.249802 c 0.0971,-0.137393 0.20307,-0.29002 0.23546,-0.339177 0.0326,-0.04916 0.14123,-0.205809 0.24189,-0.348129 0.10067,-0.142316 0.27089,-0.383044 0.37827,-0.534953 0.10735,-0.151907 0.33251,-0.47534 0.5003,-0.718736 0.1678,-0.243392 0.31362,-0.443088 0.32407,-0.443768 0.0368,-0.0021 0.58626,0.400078 0.59715,0.437259 0.0119,0.03691 0.3669,0.345037 0.41884,0.362357 0.0516,0.0172 0.0229,0.05852 -0.34176,0.493389 -0.38334,0.457013 -0.38812,0.461435 -0.43595,0.403791 -0.18114,-0.218346 -0.41473,-0.09443 -0.46394,0.246104 -0.1224,0.847101 0.13077,1.281834 0.51489,0.884139 l 0.13739,-0.142266 0.32629,0.271858 c 0.17946,0.149525 0.3885,0.32546 0.46452,0.390966 l 0.1382,0.119111 -0.34312,0.343711 -0.34314,0.34371 0.0798,0.413716 c 0.0438,0.227549 0.0835,0.410431 0.0882,0.406414 0.004,-0.0039 0.51938,-0.517859 1.14396,-1.141876 l 1.13565,-1.134569 0.23285,0.231266 c 0.18881,0.18749 0.4785,0.519316 0.60844,0.696951 0.0166,0.0229 0.004,0.04737 -0.0455,0.08622 -0.038,0.02985 -0.28455,0.228752 -0.5481,0.442035 -0.26352,0.213279 -0.72966,0.587748 -1.03583,0.832156 l -0.55667,0.444374 0.0168,0.256343 c 0.041,0.619851 0.0404,0.616388 0.10234,0.572678 0.0311,-0.02174 0.048,-0.05163 0.0388,-0.06777 -0.01,-0.01584 -0.007,-0.0209 0.004,-0.01108 0.0178,0.01619 0.0763,-0.02485 0.3437,-0.24222 0.0528,-0.04296 0.21822,-0.175879 0.36747,-0.295414 0.1493,-0.119525 0.44583,-0.359571 0.65895,-0.533419 0.21314,-0.173845 0.53487,-0.435637 0.71498,-0.581758 l 0.32748,-0.265672 0.0712,0.08374 c 0.24639,0.288934 0.46063,0.577804 0.63745,0.859547 0.21088,0.336 0.38058,0.602893 0.51568,0.811065 0.61426,0.946409 1.1589,1.865472 1.1589,1.955548 0,0.01557 -0.40104,0.205516 -0.43067,0.20399 -0.0185,-8.95e-4 -0.33922,-0.454803 -0.968,-1.370349 -0.25806,-0.375743 -0.34448,-0.39962 -0.43419,-0.119945 -0.24651,0.768512 -0.74194,0.994575 -0.97708,0.445832 -0.11557,-0.269875 -0.01,-0.623673 0.33242,-1.098645 0.0901,-0.125228 0.15974,-0.23057 0.15518,-0.23408 -0.004,-0.0036 -0.062,-0.04266 -0.12755,-0.08705 l -0.11919,-0.08068 -0.0457,0.05844 c -0.81782,1.044332 -0.93896,1.971673 -0.30817,2.359356 0.42737,0.262673 1.00686,-0.0358 1.1071,-0.570263 0.016,-0.08592 0.0446,-0.106943 0.0662,-0.04944 0.0127,0.03351 0.0655,0.108886 0.47658,0.680622 0.26894,0.374169 0.26642,0.341652 0.0345,0.449174 -0.29108,0.13492 -0.79446,0.366009 -1.09562,0.502983 l -0.27202,0.123696 -0.0525,0.3441 c -0.0292,0.18926 -0.0588,0.38064 -0.0664,0.42529 l -0.0138,0.0813 0.18001,-0.0907 c 0.099,-0.0499 0.32003,-0.15509 0.49115,-0.23378 z m -3.16555,-6.420187 c 0.0276,-0.03202 0.096,-0.110185 0.15255,-0.173662 0.0565,-0.0635 0.1027,-0.125033 0.1027,-0.136778 0,-0.02747 -0.29837,-0.262463 -0.32302,-0.254388 -0.0107,0.0031 -0.0157,-0.0036 -0.0127,-0.01495 0.004,-0.01156 -0.12341,-0.128888 -0.28159,-0.260678 -0.16914,-0.140875 -0.28275,-0.252585 -0.27565,-0.271064 0.0119,-0.02819 0.48876,-0.608626 0.66474,-0.807319 l 0.0692,-0.07841 0.37827,0.317271 c 0.75408,0.632495 0.73153,0.51072 0.19448,1.048763 -0.25608,0.256551 -0.43306,0.452186 -0.42331,0.467956 0.0107,0.01707 0.005,0.02014 -0.0136,0.0082 -0.0193,-0.01201 -0.0566,0.01301 -0.10318,0.06963 -0.0403,0.04866 -0.0969,0.100839 -0.12586,0.115999 -0.0529,0.02759 -0.0529,0.02759 -0.004,-0.03065 z m -31.114653,5.534819 c 0.511794,-0.164033 0.634626,-0.505778 0.256281,-0.713022 -0.0885,-0.04849 -0.16476,-0.09175 -0.169516,-0.09624 -0.0046,-0.0045 0.06243,-0.137902 0.149322,-0.296514 0.08688,-0.158607 0.199447,-0.365282 0.250139,-0.459275 0.05069,-0.094 0.10253,-0.184147 0.115123,-0.200342 0.01269,-0.01619 0.01761,-0.03822 0.01084,-0.04884 -0.0066,-0.01049 0.01339,-0.01938 0.04439,-0.01938 0.031,0 0.052,0.007 0.0467,0.01557 -0.01001,0.01637 0.686543,0.460475 0.722315,0.460475 0.03499,0 0.756334,-0.324545 0.755067,-0.339723 -4.49e-4,-0.0079 -0.107761,-0.0792 -0.237946,-0.158542 -0.130217,-0.07935 -0.291667,-0.179173 -0.358778,-0.221836 -0.06709,-0.04266 -0.215371,-0.135592 -0.329461,-0.206515 -0.114099,-0.07093 -0.245878,-0.153664 -0.292856,-0.183862 -0.160672,-0.103296 -1.130477,-0.708443 -1.384965,-0.864222 -0.132141,-0.08088 0.07317,-0.484166 0.594164,-1.167175 l 0.07811,-0.102378 0.08514,0.06575 c 0.08207,0.06341 1.163113,0.971155 1.237696,1.039313 0.02013,0.01843 0.208394,0.176438 0.418348,0.351201 l 0.38174,0.31775 0.399206,-0.112067 c 0.470578,-0.132127 0.434029,-0.114034 0.355248,-0.176011 -0.03499,-0.02752 -0.183181,-0.151282 -0.329318,-0.274995 -0.146139,-0.123717 -0.319243,-0.268887 -0.384682,-0.322597 -0.06544,-0.05373 -0.306045,-0.255187 -0.534673,-0.447729 -0.22863,-0.192545 -0.483011,-0.406771 -0.565289,-0.476069 -0.08226,-0.06931 -0.175629,-0.146987 -0.207442,-0.172648 -0.0318,-0.02565 -0.123732,-0.101901 -0.204265,-0.169467 -0.08053,-0.06754 -0.156018,-0.13085 -0.167732,-0.140671 -0.01569,-0.01319 0.370982,-0.510644 0.472239,-0.607543 0.007,-0.0067 0.01281,-0.02658 0.01281,-0.04419 0,-0.03438 0.7216,-0.807824 0.748027,-0.801754 0.40223,0.09234 0.759591,0.943569 0.396125,0.943569 -0.282795,0 -0.431739,0.264581 -0.25681,0.456181 0.165213,0.180949 0.302821,0.209899 1.650738,0.347295 1.022475,0.104227 0.942553,0.11655 0.933636,-0.144135 l -0.0063,-0.182936 -0.69553,-0.05661 c -0.382545,-0.03114 -0.707829,-0.06052 -0.722858,-0.06533 -0.01722,-0.0055 -8.99e-4,-0.06209 0.04431,-0.15326 0.08731,-0.176242 0.115648,-0.44232 0.06852,-0.643302 -0.03152,-0.134388 -0.654652,-0.823641 -0.712359,-0.787963 -0.01156,0.0071 -0.01806,0.0013 -0.01432,-0.01255 0.0036,-0.01402 -0.03965,-0.06699 -0.09626,-0.117788 l -0.102983,-0.09229 0.408032,-0.417563 c 0.351911,-0.36014 0.455027,-0.449365 0.749699,-0.648766 0.869134,-0.588138 1.196755,-0.811763 1.208025,-0.824571 0.0067,-0.0075 0.117947,-0.08298 0.247154,-0.167449 0.129212,-0.08449 0.271218,-0.185983 0.31555,-0.225582 0.10427,-0.09314 0.08392,-0.106931 0.27187,0.1847 l 0.163449,0.253603 -0.114635,0.0948 c -0.06307,0.05211 -0.305279,0.240913 -0.538288,0.419506 -0.741272,0.568167 -0.82555,0.661459 -0.870912,0.96406 -0.03929,0.262175 0.353823,0.871437 0.520898,0.807298 0.01756,-0.0067 0.02572,-0.0021 0.01824,0.0098 -0.0074,0.01214 0.03862,0.04126 0.102447,0.06476 0.06385,0.02352 0.209425,0.07866 0.323516,0.122605 0.537448,0.206993 0.933556,0.353316 0.938441,0.346659 0.0031,-0.0039 0.03384,-0.08549 0.06864,-0.181004 l 0.06326,-0.173671 -0.443637,-0.162222 c -0.663042,-0.242447 -0.755321,-0.305071 -0.823657,-0.558942 -0.07787,-0.289177 1.84e-4,-0.375417 0.993383,-1.098522 l 0.125271,-0.09118 0.10545,0.161899 c 0.05802,0.08906 0.116922,0.174572 0.130979,0.19006 0.01406,0.01548 0.04201,0.05837 0.06213,0.09525 0.08744,0.160172 0.497803,0.778707 0.523123,0.788425 0.0153,0.0057 0.206142,0.0075 0.424049,0.0039 l 0.396193,-0.0067 -0.311712,-0.482745 c -0.383555,-0.594076 -0.946149,-1.459721 -1.228884,-1.890921 l -0.211718,-0.322893 0.112979,-0.06578 c 0.06211,-0.03616 0.215321,-0.134066 0.340415,-0.217497 L 89.0415,89.461304 88.753047,89.301593 c -0.309099,-0.171149 -0.365484,-0.193891 -0.354962,-0.143179 0.0036,0.0178 -0.0039,0.02564 -0.0172,0.01755 -0.01318,-0.0081 -0.20288,0.103211 -0.421582,0.247421 -0.21871,0.144225 -0.419611,0.274648 -0.446456,0.289837 -0.252761,0.142991 -0.990707,0.66271 -1.743292,1.227756 l -0.913534,0.685886 -0.684968,0.741682 c -1.45666,1.577261 -1.346663,1.452903 -2.292465,2.591775 -0.114874,0.138311 -0.388922,0.550131 -0.439104,0.659824 -0.01844,0.04028 -0.253788,0.424798 -0.52303,0.854479 l -0.489519,0.78124 0.101875,0.01482 c 0.05603,0.0081 0.213637,0.02187 0.350197,0.03051 l 0.248291,0.0157 0.117804,-0.194675 c 0.06479,-0.107062 0.124652,-0.194964 0.13305,-0.195309 0.01108,-4.47e-4 0.963837,0.58354 1.017902,0.624014 0.01986,0.01491 -0.566283,1.061528 -0.590845,1.054993 -0.01508,-0.0039 -0.199045,-0.09796 -0.408772,-0.20872 -0.536509,-0.283395 -0.726599,-0.34004 -0.997539,-0.29727 -0.161914,0.02555 -0.321715,0.09334 -0.300622,0.127452 0.0089,0.01469 0.0031,0.01723 -0.01481,0.0062 -0.0485,-0.02998 -0.266199,0.216667 -0.351339,0.398025 -0.31391,0.668681 0.253224,1.249468 0.916269,0.938324 0.181795,-0.08532 0.418893,-0.288829 0.398485,-0.342041 -0.007,-0.0185 -0.0031,-0.02748 0.0089,-0.02001 0.01215,0.0074 0.04684,-0.02763 0.07717,-0.07809 0.03035,-0.05043 0.0579,-0.09546 0.06124,-0.100027 0.0036,-0.0046 0.07791,0.03181 0.165623,0.08089 l 0.1595,0.08924 -0.08851,0.178912 c -0.193882,0.391967 0.210393,0.554099 0.86139,0.345447 z m -1.900482,-0.564826 c -0.288305,-0.105859 -0.420191,-0.310849 -0.322099,-0.500613 0.07539,-0.145828 0.200867,-0.125952 0.624664,0.09895 0.346278,0.183752 0.336285,0.171446 0.227554,0.280223 -0.15542,0.155476 -0.329117,0.195276 -0.530119,0.121466 z m 14.179308,-8.556434 0.102888,-0.17105 -0.444655,-0.298835 c -0.244567,-0.164609 -0.518209,-0.346771 -0.608098,-0.405056 l -0.163435,-0.105964 0.165004,-0.16507 c 0.09075,-0.09078 0.184032,-0.205184 0.207288,-0.254209 0.04923,-0.10376 0.04948,-0.103821 0.189824,-0.04166 0.364784,0.161419 0.577979,0.118254 1.122776,-0.227367 0.08022,-0.05089 0.264886,0.64757 0.264886,1.00194 0,0.01048 0.534073,0.268568 0.696138,0.336307 l 0.07427,0.03101 -0.09218,-0.576377 c -0.05071,-0.317004 -0.120657,-0.757646 -0.155447,-0.979197 -0.03476,-0.221554 -0.0843,-0.534664 -0.11,-0.695792 -0.122701,-0.768984 -0.145119,-0.922843 -0.135804,-0.932159 0.118543,-0.118587 3.343895,-0.398535 3.300933,-0.286527 -0.0081,0.02124 -0.01481,0.256382 -0.01481,0.522539 v 0.483922 L 98.78958,87.660569 c -0.937644,-0.925896 -2.447157,-0.06098 -1.880096,1.077238 0.334137,0.670691 1.095875,0.892709 1.678634,0.489244 0.130311,-0.09022 0.333889,-0.310094 0.333889,-0.360622 0,-0.245548 0.04943,0.08521 0.0543,0.363291 l 0.0067,0.384515 0.329465,0.224549 c 0.181205,0.123495 0.337699,0.225126 0.347766,0.225827 0.01001,8.97e-4 0.01831,-0.723809 0.01831,-1.610026 v -1.6113 h 0.357172 c 0.33426,0 0.62275,0.02595 2.13899,0.192584 0.49056,0.05392 0.43668,-0.01337 0.37039,0.462317 -0.0647,0.463791 -0.0599,0.453278 -0.14184,0.313368 -0.63496,-1.083878 -2.20348,-0.25631 -1.64291,0.866813 0.28898,0.578985 1.10326,0.881715 1.4663,0.545135 0.0847,-0.07858 0.0861,-0.06756 0.0359,0.280873 l -0.044,0.305173 0.10358,0.09764 c 0.0569,0.05373 0.19654,0.181787 0.31019,0.284606 l 0.20664,0.186957 0.11,-0.770196 0.10999,-0.770196 0.12185,-0.0949 c 0.88489,-0.688973 1.16553,-0.145029 0.40889,0.792514 l -0.15901,0.19703 0.11903,0.108551 c 0.0655,0.0597 0.17572,0.163297 0.245,0.230231 0.14619,0.141221 0.13369,0.144668 0.3082,-0.08496 0.74316,-0.977874 0.24108,-2.391101 -0.7333,-2.064059 -0.0974,0.03269 -0.18035,0.05619 -0.18429,0.05226 -0.009,-0.0089 0.10327,-0.771832 0.11545,-0.784026 0.005,-0.0049 0.46865,0.05559 1.03044,0.134519 0.5618,0.07896 1.02431,0.136886 1.02785,0.128771 0.004,-0.008 -0.0472,-0.157165 -0.1127,-0.331213 l -0.11919,-0.316443 -0.14344,-0.01637 c -0.0789,-0.0088 -0.29171,-0.03363 -0.47291,-0.05466 -0.1812,-0.02104 -1.0433,-0.121038 -1.91576,-0.222203 -0.87247,-0.10115 -1.773,-0.205973 -2.00118,-0.232926 -0.40888,-0.04832 -0.54812,-0.05536 -1.659516,-0.08439 -0.483479,-0.01267 -0.657745,-0.006 -1.256838,0.04731 -0.382542,0.03407 -0.88999,0.07899 -1.127656,0.09982 -0.237669,0.02081 -0.560606,0.06507 -0.717636,0.09833 -0.157031,0.03327 -0.287361,0.05761 -0.289621,0.05411 -0.0021,-0.0036 -0.04032,-0.06677 -0.08458,-0.140647 -0.302172,-0.504247 -0.726704,-0.803486 -1.101429,-0.776375 -0.186058,0.0135 -0.182072,0.0013 -0.08249,0.253323 0.170343,0.431176 0.136996,0.390852 0.323754,0.39147 0.19412,4.47e-4 0.323043,0.05232 0.514501,0.206308 0.157805,0.126908 0.200807,0.10034 -0.448829,0.2772 -0.477062,0.129872 -0.663448,0.18366 -1.134813,0.327482 -0.127523,0.03892 -0.599744,0.182969 -1.049397,0.320138 -0.449659,0.137169 -0.896718,0.273904 -0.993469,0.30386 l -0.175915,0.05447 0.251943,0.25118 0.251941,0.25118 0.31445,-0.09866 c 0.507987,-0.159368 0.764812,-0.232801 0.775349,-0.221699 0.05116,0.05393 0.259551,0.842693 0.234838,0.88889 -0.06212,0.11612 -0.159817,0.145515 -0.293086,0.08819 -0.344182,-0.148123 -0.566688,0.144176 -0.354228,0.465346 0.07839,0.11849 0.342356,0.327783 0.888148,0.704188 0.243373,0.167841 0.576981,0.400461 0.741347,0.516926 0.361344,0.256045 0.325636,0.25252 0.450774,0.04445 z m 2.910851,-1.732493 c -0.256256,-0.0485 -0.328991,-0.286598 -0.175459,-0.574442 0.02146,-0.04028 0.03681,-0.08146 0.03406,-0.09153 -0.0027,-0.01001 0.0036,-0.01557 0.01414,-0.01228 0.01049,0.0031 0.06271,-0.03616 0.11591,-0.08789 0.316919,-0.307822 0.898851,-0.367589 1.351827,-0.138842 0.196355,0.09916 0.196687,0.09346 -0.01756,0.302627 -0.472737,0.461575 -0.940639,0.674599 -1.322915,0.602298 z m 3.795756,-0.109803 c -0.48219,-0.12945 -0.15163,-0.85087 0.41676,-0.909555 0.45566,-0.04701 0.8717,0.428218 0.57853,0.66088 -0.31872,0.252936 -0.66095,0.33844 -0.99529,0.248675 z m -7.353343,-0.0335 c -0.0247,-0.0157 -0.30221,-0.878855 -0.328484,-1.021777 -0.0055,-0.03044 1.263203,-0.469767 1.360464,-0.471046 0.01357,-1.82e-4 0.05078,0.174934 0.08269,0.38914 l 0.05805,0.389461 -0.212616,0.225937 c -0.116923,0.124269 -0.233952,0.240894 -0.260037,0.259171 -0.02608,0.01827 -0.03999,0.04621 -0.03092,0.06207 0.0089,0.01583 0.0081,0.02135 -0.0018,0.01228 -0.01013,-0.0089 -0.06978,0.01496 -0.132463,0.05355 -0.16603,0.102211 -0.448871,0.15577 -0.534708,0.101258 z"
       id="path1" /></g></svg>
