<svg width="3840" height="2160" viewBox="0 0 3840 2160" fill="none" xmlns="http://www.w3.org/2000/svg">
<rect width="3840" height="2160" fill="#F1BD6E"/>
<rect width="3840" height="2160" fill="#F6A02E"/>
<rect width="3840" height="2160" fill="url(#paint0_radial_543_259)"/>
<rect width="3840" height="2160" fill="url(#paint1_radial_543_259)"/>
<path d="M2412.5 -15.5L1948 2150.5L1973 2134.5L2866.5 -32H3719.5L1982.5 2139.5L1990 2150.5L3882 509.5V1109L2002 2150.5L3882 1624.5V2191.5L2148.5 2156H1712.5L-20.5 2191.5V1624.5L1857.5 2139.5H1875L-20.5 1109V509.5L1901.5 2150.5H1917L174.5 -32H953L1926.5 2150.5H1936L1454 -15.5H2412.5Z" fill="#D6A863"/>
<path d="M2412.5 -15.5L1948 2150.5L1973 2134.5L2866.5 -32H3719.5L1982.5 2139.5L1990 2150.5L3882 509.5V1109L2002 2150.5L3882 1624.5V2191.5L2148.5 2156H1712.5L-20.5 2191.5V1624.5L1857.5 2139.5H1875L-20.5 1109V509.5L1901.5 2150.5H1917L174.5 -32H953L1926.5 2150.5H1936L1454 -15.5H2412.5Z" fill="url(#paint2_radial_543_259)"/>
<path d="M2412.5 -15.5L1948 2150.5L1973 2134.5L2866.5 -32H3719.5L1982.5 2139.5L1990 2150.5L3882 509.5V1109L2002 2150.5L3882 1624.5V2191.5L2148.5 2156H1712.5L-20.5 2191.5V1624.5L1857.5 2139.5H1875L-20.5 1109V509.5L1901.5 2150.5H1917L174.5 -32H953L1926.5 2150.5H1936L1454 -15.5H2412.5Z" fill="url(#paint3_radial_543_259)"/>
<defs>
<radialGradient id="paint0_radial_543_259" cx="0" cy="0" r="1" gradientUnits="userSpaceOnUse" gradientTransform="translate(1921.5 2160) rotate(-90) scale(2160 3840)">
<stop stop-color="#F7E4B4"/>
<stop offset="0.840558" stop-color="#F1BD6E"/>
</radialGradient>
<radialGradient id="paint1_radial_543_259" cx="0" cy="0" r="1" gradientUnits="userSpaceOnUse" gradientTransform="translate(1974.04 2203) rotate(-90) scale(2203 2119.56)">
<stop stop-color="#F4DCB1"/>
<stop offset="1" stop-color="#F0BC6C"/>
</radialGradient>
<radialGradient id="paint2_radial_543_259" cx="0" cy="0" r="1" gradientUnits="userSpaceOnUse" gradientTransform="translate(1985.67 2283.52) rotate(-90) scale(2285.52 2868.63)">
<stop stop-color="#FFF5DF" stop-opacity="0.7"/>
<stop offset="1" stop-color="#C68E39"/>
</radialGradient>
<radialGradient id="paint3_radial_543_259" cx="0" cy="0" r="1" gradientUnits="userSpaceOnUse" gradientTransform="translate(1919.24 2085.37) rotate(-90) scale(2087.86 2672.53)">
<stop stop-color="#F4DFB8"/>
<stop offset="1" stop-color="#F1BC6D"/>
</radialGradient>
</defs>
</svg>
