<svg width="2479" height="139" viewBox="0 0 2479 139" fill="none" xmlns="http://www.w3.org/2000/svg">
<mask id="path-1-outside-1_353_238" maskUnits="userSpaceOnUse" x="0" y="0" width="2479" height="409" fill="black">
<rect fill="white" width="2479" height="409"/>
<path d="M2475 405C2475 298.648 2344.83 196.652 2113.13 121.45C1881.43 46.2481 1567.18 4.00001 1239.5 4C911.825 3.99999 597.571 46.2481 365.87 121.45C134.168 196.652 4.00005 298.648 4 405L1239.5 405H2475Z"/>
</mask>
<path d="M2475 405C2475 298.648 2344.83 196.652 2113.13 121.45C1881.43 46.2481 1567.18 4.00001 1239.5 4C911.825 3.99999 597.571 46.2481 365.87 121.45C134.168 196.652 4.00005 298.648 4 405L1239.5 405H2475Z" fill="#FFA31A"/>
<path d="M2475 405C2475 298.648 2344.83 196.652 2113.13 121.45C1881.43 46.2481 1567.18 4.00001 1239.5 4C911.825 3.99999 597.571 46.2481 365.87 121.45C134.168 196.652 4.00005 298.648 4 405L1239.5 405H2475Z" fill="#DF7B34"/>
<path d="M2475 405C2475 298.648 2344.83 196.652 2113.13 121.45C1881.43 46.2481 1567.18 4.00001 1239.5 4C911.825 3.99999 597.571 46.2481 365.87 121.45C134.168 196.652 4.00005 298.648 4 405L1239.5 405H2475Z" fill="#A74426"/>
<path d="M2475 405C2475 298.648 2344.83 196.652 2113.13 121.45C1881.43 46.2481 1567.18 4.00001 1239.5 4C911.825 3.99999 597.571 46.2481 365.87 121.45C134.168 196.652 4.00005 298.648 4 405L1239.5 405H2475Z" fill="#933F12"/>
<path d="M2475 405C2475 298.648 2344.83 196.652 2113.13 121.45C1881.43 46.2481 1567.18 4.00001 1239.5 4C911.825 3.99999 597.571 46.2481 365.87 121.45C134.168 196.652 4.00005 298.648 4 405L1239.5 405H2475Z" fill="#D6791C"/>
<path d="M2475 405C2475 298.648 2344.83 196.652 2113.13 121.45C1881.43 46.2481 1567.18 4.00001 1239.5 4C911.825 3.99999 597.571 46.2481 365.87 121.45C134.168 196.652 4.00005 298.648 4 405L1239.5 405H2475Z" fill="url(#paint0_radial_353_238)"/>
<path d="M2475 405C2475 298.648 2344.83 196.652 2113.13 121.45C1881.43 46.2481 1567.18 4.00001 1239.5 4C911.825 3.99999 597.571 46.2481 365.87 121.45C134.168 196.652 4.00005 298.648 4 405L1239.5 405H2475Z" stroke="#E0CAA7" stroke-width="8" mask="url(#path-1-outside-1_353_238)"/>
<defs>
<radialGradient id="paint0_radial_353_238" cx="0" cy="0" r="1" gradientUnits="userSpaceOnUse" gradientTransform="translate(1238.66 414.05) rotate(-90) scale(669.091 2061.5)">
<stop offset="0.364403" stop-color="#EA5D05"/>
<stop offset="0.658607" stop-color="#F9F9F9"/>
</radialGradient>
</defs>
</svg>
