<svg width="189" height="189" viewBox="0 0 189 189" fill="none" xmlns="http://www.w3.org/2000/svg">
<path d="M89.8044 188.859C85.5276 188.633 81.202 188.124 77.2167 187.382C75.3969 187.043 72.3103 186.37 71.1724 186.064C70.8933 185.99 70.333 185.839 69.9272 185.728C64.8987 184.371 59.6873 182.494 55.4123 180.499C54.9372 180.277 54.5316 180.096 54.5109 180.096C54.4901 180.096 53.6336 179.677 52.6075 179.164C48.591 177.156 45.2415 175.205 41.6101 172.758C38.6477 170.762 35.2302 168.128 32.4297 165.681C32.0392 165.34 31.6899 165.091 31.6533 165.128C31.6167 165.168 31.6007 165.147 31.6182 165.101C31.6352 165.049 31.1093 164.509 30.4498 163.903C28.9463 162.522 26.3367 159.909 25.0136 158.46C24.4588 157.852 23.9607 157.369 23.9067 157.386C23.8528 157.401 23.8373 157.388 23.8731 157.348C23.9079 157.31 23.5293 156.813 23.0312 156.236C21.8077 154.82 19.8579 152.38 18.6485 150.753C18.1017 150.017 17.6145 149.426 17.5658 149.44C17.5169 149.456 17.5041 149.425 17.5371 149.37C17.5914 149.282 17.0793 148.534 16.9156 148.462C16.8773 148.447 16.8457 148.396 16.8457 148.349C16.8457 148.304 16.3549 147.529 15.755 146.627C-4.65269 115.918 -5.27311 77.3147 14.1184 44.7998C20.0127 34.9164 29.7222 24.5735 39.9052 17.3309C56.3181 5.65715 75.3791 -0.245252 95.8475 0.00780598C100.589 0.0663131 102.193 0.169456 106.363 0.682701C124.519 2.91799 142.057 10.681 155.921 22.6195C156.513 23.1291 157.006 23.4884 157.065 23.4521C157.123 23.4162 157.142 23.4302 157.11 23.4835C157.072 23.5362 157.704 24.1822 158.502 24.9193C160.065 26.3625 163.116 29.4283 164.511 30.9581C164.985 31.4774 165.415 31.8758 165.467 31.8434C165.521 31.8102 165.534 31.8298 165.494 31.8893C165.453 31.9496 165.776 32.3946 166.25 32.9417C169.503 36.6994 173.045 41.6257 175.673 46.046C176.204 46.9393 176.677 47.6461 176.725 47.6167C176.773 47.588 176.782 47.6088 176.748 47.6651C176.71 47.7212 177.025 48.3815 177.442 49.1327C194.851 80.5498 192.377 120.468 171.213 149.628C170.649 150.405 170.125 151.133 170.049 151.246C169.688 151.78 167.099 154.982 166.045 156.196C162.246 160.573 157.87 164.787 153.537 168.242C151.851 169.585 151.694 169.709 150.863 170.329C150.585 170.536 150.367 170.746 150.381 170.794C150.396 170.843 150.366 170.855 150.317 170.821C150.244 170.776 149.642 171.176 148.55 171.999C148.471 172.059 148.338 172.151 148.255 172.201C148.173 172.251 147.699 172.568 147.202 172.902C146.161 173.604 144.915 174.412 144.314 174.776C144.086 174.914 143.692 175.155 143.438 175.312C127.914 184.891 108.32 189.837 89.8018 188.853L89.8044 188.859ZM99.3049 186.831C113.651 186.046 127.677 182.012 139.575 175.249C140.179 174.905 140.798 174.554 140.95 174.468C142.878 173.375 145.617 171.604 145.549 171.494C145.511 171.436 145.534 171.422 145.594 171.456C145.651 171.494 145.813 171.441 145.954 171.341C151.214 167.659 153.393 165.938 157.14 162.507C159.82 160.053 164.218 155.456 164.088 155.246C164.05 155.194 164.073 155.177 164.126 155.205C164.288 155.305 167.904 150.92 167.799 150.75C167.762 150.696 167.78 150.663 167.826 150.677C167.95 150.715 168.775 149.644 168.709 149.537C168.683 149.488 168.694 149.464 168.75 149.478C168.952 149.536 171.841 145.326 173.682 142.287C190.995 113.712 191.447 77.5049 174.852 48.599C173.066 45.487 170.204 41.0857 170.035 41.1902C169.979 41.2238 169.965 41.2072 169.997 41.1488C170.073 41.0245 168.728 39.1661 168.632 39.2627C168.591 39.3002 168.578 39.2835 168.591 39.2257C168.636 39.0671 167.376 37.4294 167.262 37.5C167.204 37.5359 167.192 37.517 167.235 37.4525C167.452 37.1019 161.503 30.4799 158.112 27.2959C121.618 -6.96414 65.2404 -6.4608 29.7741 28.4417C26.2611 31.8988 21.039 37.8674 21.2411 38.1945C21.2759 38.2516 21.2646 38.2734 21.215 38.2425C21.1175 38.1823 20.1894 39.3844 18.7423 41.4454C-2.92557 72.306 -3.52503 113.719 17.2399 145.235C17.8065 146.095 18.2989 146.753 18.3517 146.72C18.4063 146.682 18.4185 146.705 18.3796 146.768C18.2653 146.953 22.1621 152.203 22.3776 152.154C22.4392 152.139 22.4623 152.169 22.429 152.226C22.2176 152.569 28.5009 159.379 31.9762 162.574C34.282 164.694 36.6441 166.653 36.7876 166.564C36.8497 166.524 36.8682 166.541 36.8322 166.602C36.7123 166.796 42.0253 170.755 42.2332 170.626C42.29 170.588 42.3092 170.607 42.2764 170.664C42.2149 170.764 43.1881 171.459 43.3889 171.459C43.453 171.459 43.4856 171.478 43.4613 171.504C43.3504 171.616 47.5641 174.209 50.1929 175.649C61.0882 181.614 72.865 185.248 85.3816 186.509C86.5146 186.624 87.7892 186.714 90.4086 186.871C91.6308 186.942 97.7989 186.92 99.3096 186.833L99.3049 186.831ZM91.188 182.895C74.8265 182.181 59.2692 177.241 46.2837 168.639C45.7596 168.291 45.2917 168.031 45.2438 168.061C45.1959 168.088 45.1682 168.076 45.1821 168.021C45.1957 167.97 44.8546 167.685 44.4234 167.39C43.9921 167.094 43.4341 166.708 43.1833 166.53C42.7606 166.231 39.9731 164.145 39.7654 163.971C39.0699 163.391 38.3875 162.891 38.3177 162.912C38.2692 162.927 38.2533 162.897 38.2821 162.853C38.3101 162.808 38.179 162.651 37.9892 162.505C36.3505 161.259 32.7051 157.807 29.6324 154.592C29.2153 154.156 26.8772 151.485 26.5355 151.055C26.3654 150.841 26.1898 150.688 26.145 150.715C26.1008 150.742 26.0751 150.723 26.089 150.675C26.1094 150.604 25.7441 150.103 25.0315 149.227C22.4844 146.093 18.8354 140.529 16.59 136.355C4.56467 113.999 2.74408 87.2642 11.6275 63.4838C11.9163 62.7105 12.1228 62.0294 12.0862 61.9701C12.047 61.906 12.0597 61.8871 12.1183 61.9233C12.1769 61.9592 12.2826 61.8064 12.3789 61.5453C13.8533 57.5492 17.297 50.9157 20.2949 46.2968C27.94 34.5178 39.3303 23.7862 50.9726 17.3929C51.2009 17.2675 51.8443 16.9143 52.4023 16.6079C74.1054 4.69209 100.944 2.65708 124.44 11.1458C131.04 13.5302 137.679 16.8508 143.098 20.4782C143.772 20.9292 144.37 21.2694 144.427 21.2342C144.485 21.1987 144.504 21.2115 144.472 21.2641C144.402 21.3789 145.861 22.4239 145.985 22.3471C146.034 22.3169 146.062 22.3298 146.048 22.374C146.033 22.4185 146.728 22.9899 147.591 23.6427C148.453 24.2954 149.695 25.2686 150.351 25.8053C151.007 26.342 151.578 26.7707 151.62 26.758C151.665 26.7444 151.685 26.7697 151.672 26.8133C151.657 26.8561 151.982 27.1733 152.387 27.5174C166.189 39.2202 176.495 56.2814 180.702 74.3935C187.041 101.679 179.68 131.779 161.732 151.963C161.386 152.352 161.103 152.686 161.103 152.705C161.103 152.755 160.085 153.869 158.464 155.59C155.836 158.379 151.583 162.223 148.721 164.394C148.43 164.614 148.219 164.838 148.252 164.891C148.289 164.944 148.267 164.959 148.207 164.929C148.152 164.891 147.782 165.11 147.385 165.408C131.465 177.384 110.975 183.759 91.1838 182.894L91.188 182.895ZM91.037 178.228C91.2318 176.501 91.2295 176.406 90.9928 176.405C90.6813 176.405 83.4159 175.767 83.3909 175.738C83.3565 175.693 83.7097 171.953 83.7524 171.911C83.7739 171.892 84.4915 171.933 85.3459 172.012C88.7966 172.33 90.6371 172.466 90.6945 172.408C90.7814 172.321 90.9439 170.439 90.8793 170.271C90.843 170.175 90.6987 170.129 90.4303 170.128C89.9767 170.127 83.9867 169.599 83.9443 169.557C83.9047 169.516 84.1833 166.495 84.2314 166.447C84.2529 166.428 84.8211 166.454 85.493 166.516C86.165 166.576 87.6902 166.707 88.8823 166.808C90.0745 166.907 91.202 167.01 91.3878 167.036C91.777 167.09 91.7755 167.095 91.8873 165.592L91.9469 164.791L91.5446 164.737C90.9926 164.661 81.6578 163.853 81.6384 163.88C81.6305 163.895 81.4684 165.707 81.2796 167.915C81.0909 170.122 80.8182 173.237 80.6738 174.835C80.5293 176.433 80.4267 177.757 80.4455 177.776C80.4833 177.816 81.7057 177.928 86.438 178.337C88.2136 178.491 89.8116 178.632 89.9892 178.65C91.0032 178.754 90.9765 178.763 91.037 178.228ZM101.181 178.251C102.392 178.152 102.194 178.392 102.718 176.383C102.96 175.454 103.72 172.556 104.407 169.942C105.094 167.328 105.738 164.868 105.838 164.475L106.019 163.76L105.545 163.808C105.283 163.831 104.637 163.897 104.108 163.948C103.58 163.997 103.135 164.051 103.121 164.065C103.098 164.084 102.048 168.456 101.418 171.143C100.796 173.797 100.566 174.656 100.499 174.588C100.459 174.543 100.282 174.179 100.108 173.773C99.9344 173.367 99.3764 172.1 98.8684 170.959C98.3604 169.817 97.643 168.197 97.2742 167.36C96.0766 164.641 96.0991 164.684 95.8749 164.684C95.331 164.684 93.1249 164.905 93.1249 164.96C93.1249 164.998 93.9177 166.742 94.8866 168.844C95.8556 170.946 97.0554 173.559 97.5529 174.65C98.0504 175.741 98.6465 177.04 98.8775 177.537L99.2975 178.44L99.7392 178.388C99.9822 178.361 100.631 178.296 101.181 178.251ZM109.543 177.461C111.091 177.027 110.929 177.252 111.064 175.345C111.201 173.399 110.805 173.762 113.705 172.925C116.92 171.996 116.577 171.999 117.237 172.887C117.537 173.291 117.823 173.597 117.874 173.566C117.925 173.528 117.936 173.558 117.9 173.616C117.82 173.747 118.667 174.852 118.807 174.798C118.861 174.78 119.467 174.604 120.151 174.412C121.725 173.971 121.672 174.069 120.874 173.061C120.499 172.587 120.111 172.09 120.011 171.957C119.073 170.709 118.737 170.316 118.653 170.368C118.596 170.405 118.582 170.383 118.623 170.323C118.661 170.262 118.357 169.798 117.902 169.224C117.47 168.678 116.075 166.882 114.803 165.233C112.037 161.647 112.55 162.007 110.886 162.492L109.505 162.896L109.164 166.625C108.976 168.675 108.674 171.952 108.493 173.906C108.139 177.713 108.126 177.905 108.232 177.846C108.27 177.827 108.862 177.649 109.547 177.457L109.543 177.461ZM111.388 170.958C111.388 170.382 111.745 165.68 111.791 165.632C111.81 165.617 112.169 166.076 112.596 166.657C113.022 167.236 113.408 167.687 113.454 167.658C113.501 167.632 113.511 167.651 113.481 167.703C113.447 167.756 113.794 168.303 114.25 168.917C115.087 170.044 115.182 170.219 114.957 170.219C114.889 170.219 114.058 170.441 113.112 170.713L111.391 171.208L111.388 170.958ZM73.9706 175.801C78.1064 174.724 78.0104 170.016 73.8012 167.492C71.9976 166.41 71.717 166.225 71.2795 165.832C69.5505 164.277 71.6273 162.928 74.0303 164.046C75.0022 164.498 75.3217 164.944 75.3739 165.922L75.4041 166.482L76.7069 166.792C78.2278 167.154 78.128 167.196 78.1688 166.157C78.3547 161.413 69.9037 159.302 68.2056 163.668C67.3618 165.838 68.3721 167.498 71.7721 169.527C74.335 171.057 74.7809 171.817 73.7396 172.883C72.1053 174.555 68.8217 173.105 68.6999 170.658C68.6603 169.859 68.6572 169.85 68.4174 169.846C68.2842 169.844 67.691 169.747 67.0994 169.633L66.0237 169.423L65.9694 169.694C65.6452 171.317 66.9132 174.646 67.7353 174.33C67.8049 174.308 67.8392 174.315 67.8119 174.368C67.7422 174.481 67.8944 174.59 68.6362 174.957C70.383 175.822 72.5748 176.171 73.9711 175.808L73.9706 175.801ZM126.192 172.068C126.649 171.856 127.179 171.617 127.371 171.539C127.788 171.37 127.806 171.461 127.028 169.819C126.711 169.152 126.34 168.356 126.203 168.05L125.955 167.493L126.475 166.02C126.762 165.209 127.026 164.513 127.064 164.473C127.104 164.428 127.764 164.838 128.535 165.372C129.306 165.907 129.973 166.345 130.017 166.345C130.062 166.345 130.111 166.383 130.129 166.415C130.167 166.492 130.799 166.948 132.374 168.023L133.388 168.715L134.978 167.98C135.852 167.576 136.546 167.21 136.52 167.168C136.498 167.124 135.987 166.793 135.392 166.426C134.797 166.059 134.103 165.628 133.85 165.468C133.596 165.307 133.036 164.956 132.604 164.688C132.173 164.42 131.675 164.108 131.497 163.994C130.085 163.093 128.47 162.1 128.418 162.1C128.38 162.1 128.272 162.026 128.174 161.932C127.969 161.741 127.802 162.313 129.507 157.356C130.558 154.297 130.659 154.53 128.689 155.46L127.071 156.224L126.557 157.847C125.729 160.46 124.578 164.073 124.528 164.216C124.501 164.289 124.228 163.812 123.921 163.155C122.864 160.9 122.499 160.115 122.179 159.405C121.912 158.809 121.831 158.703 121.681 158.748C121.525 158.797 119.41 159.781 119.344 159.837C119.329 159.852 119.957 161.225 120.738 162.894C122.489 166.639 122.576 166.824 123.316 168.421C123.645 169.131 124.09 170.086 124.305 170.543C124.519 171 124.814 171.636 124.959 171.956C125.105 172.277 125.256 172.52 125.294 172.497C125.332 172.478 125.735 172.281 126.192 172.068ZM53.3238 167.705C53.4756 167.44 53.7074 167.035 53.8389 166.807C53.9703 166.578 55.129 164.564 56.4138 162.331C59.0846 157.689 58.8465 158.052 59.1146 158.221C60.2678 158.946 62.4509 160.157 62.5006 160.099C62.732 159.829 63.6046 158.186 63.5446 158.134C63.5045 158.096 62.3291 157.411 60.934 156.608C59.5389 155.804 57.671 154.726 56.7832 154.212C54.194 152.712 54.0088 152.62 53.9105 152.781C53.5874 153.311 52.9098 154.549 52.9124 154.605C52.9141 154.645 53.7027 155.123 54.6649 155.673C55.6271 156.222 56.4143 156.7 56.4143 156.734C56.4143 156.772 56.0404 157.439 55.5836 158.225C55.1267 159.012 54.7734 159.71 54.7985 159.776C54.8235 159.841 54.8065 159.873 54.7615 159.844C54.6959 159.799 53.3153 162.107 51.9159 164.592C51.8159 164.769 51.4978 165.322 51.209 165.82C50.5709 166.919 50.5142 166.767 51.8489 167.543C53.168 168.31 52.9887 168.29 53.3238 167.705ZM46.2549 162.651C46.5571 161.765 47.2901 159.649 47.8837 157.948C48.4774 156.248 49.2663 153.985 49.637 152.92C50.0077 151.854 50.3767 150.8 50.4571 150.578C50.5375 150.356 50.6033 150.143 50.6033 150.103C50.6033 150.017 48.6013 148.265 48.4266 148.198C48.3595 148.175 48.0021 148.317 47.6322 148.52C47.2624 148.722 46.0675 149.354 44.9767 149.925C42.5286 151.207 39.8084 152.637 38.889 153.125C38.5086 153.327 37.4955 153.859 36.6378 154.306C35.1585 155.078 35.0876 155.127 35.2578 155.266C35.3563 155.346 35.8602 155.779 36.3773 156.228L37.3175 157.043L38.4491 156.419C39.0716 156.075 39.7359 155.698 39.9254 155.58L40.2699 155.366L40.7623 155.804C41.0331 156.045 41.4532 156.409 41.6957 156.612C41.9382 156.815 42.1842 157.025 42.2423 157.079C42.5418 157.359 44.0449 158.668 44.2633 158.84C44.5888 159.094 44.6043 158.996 43.9605 160.783C43.4304 162.256 43.4129 162.332 43.5685 162.486C43.8297 162.744 45.6666 164.303 45.6868 164.283C45.697 164.275 45.9526 163.538 46.2549 162.651ZM44.4695 155.994C44.0129 155.585 43.3747 155.013 43.0513 154.724L42.4632 154.199L44.5271 153.058C45.6622 152.43 46.7505 151.817 46.9455 151.696C47.4486 151.383 47.1262 152.478 45.5639 156.384C45.3792 156.846 45.4451 156.869 44.4695 155.994ZM145.199 160.526C149.088 159.825 151.901 155.078 150.035 152.365C148.469 150.088 146.56 149.902 143.01 151.682C140.515 152.933 139.8 153.064 139.229 152.376C138.031 150.928 141.222 148.275 142.973 149.263L143.512 149.568L143.983 149.108C144.242 148.854 144.702 148.42 145.002 148.143L145.549 147.639L144.915 147.172C141.293 144.512 134.978 149.479 136.868 153.502C138.014 155.939 140.188 156.156 144.137 154.226C146.879 152.885 147.879 153.026 147.99 154.77C148.143 157.173 144.717 158.826 142.902 157.225C142.742 157.084 142.681 157.128 141.818 158.014C140.757 159.102 140.774 159.052 141.342 159.467C142.641 160.416 143.898 160.76 145.199 160.526ZM99.1666 159.009C151.303 155.079 177.873 93.4225 144.636 53.4963C144.235 53.0142 143.822 52.5186 143.72 52.3949C138.458 46.0529 130.675 40.0398 122.733 36.1809C105.916 28.0097 85.9782 27.5712 68.9125 34.9974C68.253 35.2843 67.5171 35.6038 67.277 35.7073C67.0332 35.8125 66.8664 35.9374 66.8993 35.9905C66.9329 36.0458 66.9129 36.0576 66.8497 36.0181C66.7374 35.9487 63.9063 37.3697 62.2715 38.3161C57.9767 40.8022 54.0991 43.6791 50.2924 47.2039C48.5575 48.8103 46.2431 51.2585 46.3286 51.3968C46.3614 51.4507 46.3474 51.4689 46.2972 51.4369C46.2112 51.3837 45.1083 52.6254 43.8131 54.2335C42.7858 55.5089 40.8266 58.2302 40.8266 58.3816C40.8266 58.4257 40.7933 58.4765 40.7513 58.4934C40.6567 58.5317 40.0024 59.5434 39.0245 61.1627C31.3885 73.8071 28.3699 88.8987 30.4977 103.792C32.2103 115.779 37.3125 127.05 45.2818 136.448C47.8047 139.424 52.1333 143.537 55.0774 145.756C55.6861 146.215 56.371 146.731 56.5993 146.904C58.3987 148.26 61.4503 150.163 64.1167 151.592C66.2551 152.738 67.9635 153.53 70.8039 154.69C79.1257 158.088 89.8035 159.714 99.1666 159.009ZM91.7414 154.341C80.8138 153.847 70.0646 150.302 61.0723 144.229C58.9112 142.769 57.7238 141.873 55.7236 140.193C55.1154 139.681 54.5862 139.274 54.5476 139.286C54.5093 139.302 54.4877 139.279 54.5002 139.238C54.5119 139.198 54.212 138.879 53.8314 138.528C51.0923 135.999 48.3932 132.986 46.1834 129.99C45.7154 129.356 45.2836 128.774 45.2237 128.698C42.2907 124.967 38.5347 117.032 36.7722 110.844C35.7354 107.203 35.1782 104.141 34.6906 99.402C33.4499 87.3431 36.9842 73.0835 43.8618 62.3992C43.993 62.1954 44.1419 61.9603 44.1925 61.8766C44.4722 61.4157 45.4395 60.0379 46.2127 58.9995C46.6986 58.3467 47.0694 57.7694 47.0367 57.7165C47.0042 57.6634 47.0193 57.6459 47.0692 57.6773C47.12 57.7083 47.4629 57.3576 47.8313 56.8972C48.1998 56.4368 48.8065 55.7171 49.1795 55.2976C49.5526 54.8783 49.8386 54.509 49.8152 54.4772C49.7918 54.4458 49.7967 54.4367 49.8254 54.4568C49.8541 54.4776 50.4787 53.8613 51.2125 53.0875C51.9462 52.3137 52.6707 51.5888 52.8224 51.4766C52.9845 51.3567 53.072 51.2271 53.0347 51.1619C53.0003 51.101 53.0059 51.0824 53.0483 51.1214C53.0897 51.1592 53.3978 50.9305 53.7318 50.6124C54.0657 50.2942 54.6472 49.7648 55.0241 49.4358C55.4011 49.1067 55.7755 48.7752 55.8563 48.6991C55.9371 48.623 56.0919 48.4983 56.2005 48.4222C56.3555 48.3134 58.5292 46.615 58.9507 46.2733C68.8113 38.2777 85.7629 33.5462 99.8583 34.8552C114.769 36.2399 127.65 42.4937 138.275 53.507C138.783 54.0328 139.229 54.4534 139.267 54.4415C139.307 54.4298 139.326 54.4551 139.312 54.499C139.297 54.5422 139.554 54.8781 139.879 55.2447C159.067 76.9158 159.481 110.138 140.844 132.634C140.376 133.199 140.021 133.691 140.056 133.726C140.093 133.764 140.074 133.775 140.029 133.764C139.979 133.748 139.543 134.169 139.062 134.702C127.115 147.943 109.729 155.161 91.7429 154.347L91.7414 154.341ZM97.783 152.318C127.009 150.603 150.197 127.894 152.427 98.802C153.45 85.4612 149.309 70.7616 141.717 60.7859C141.62 60.6588 141.188 60.0825 140.757 59.5047C138.421 56.3782 135.138 52.9149 132.103 50.3748C131.189 49.6095 129.936 48.6059 129.896 48.6059C129.873 48.6059 129.721 48.4912 129.568 48.3511C129.414 48.2109 129.169 48.0252 129.021 47.9383L128.755 47.7805L128.703 50.1541C128.583 55.4699 127.982 59.0062 126.7 61.9394C122.801 70.8581 117.354 79.3231 115.769 78.9252C114.073 78.5 114.824 74.5428 118.175 66.246C118.867 64.5321 119.043 63.8512 119.045 62.8825C119.045 62.4095 118.791 59.6692 118.741 59.6216C118.733 59.6114 115.79 59.6753 112.206 59.7634L105.69 59.9239L104.827 60.4802C103.587 61.279 103.25 61.453 101.896 61.9894C100.402 62.5816 99.2354 63.2856 97.092 64.8894C96.5495 65.2954 94.4832 66.9299 94.1404 67.2243L93.8177 67.5013L94.4791 69.5185C95.4799 72.5704 95.9594 74.9551 95.8494 76.3337C95.6605 78.7017 94.9 82.4065 94.0688 85.0073C93.8008 85.8459 93.9724 93.3232 94.2707 93.8062C94.4013 94.0175 96.454 95.4863 96.5424 95.4316C96.5935 95.4052 96.624 95.4165 96.6101 95.4581C96.5965 95.5061 96.9375 95.8065 97.3688 96.1261C100.772 98.6512 101.814 99.9507 104.098 104.52C104.77 105.865 105.352 107.007 105.392 107.058C106.135 108.003 109.003 114.343 109.316 115.731C109.475 116.438 110.027 117.644 110.762 118.895C111.829 120.711 114.73 124.894 114.891 124.848C114.925 124.841 114.955 124.886 114.955 124.948C114.955 125.203 117.149 127.983 117.862 128.631C119.759 130.355 121.304 133.992 120.717 135.354C120.119 136.744 117.63 139.168 116.472 139.49C114.955 139.911 111.093 138.884 110.578 137.921C110.41 137.606 110.487 136.481 110.795 134.739C111.054 133.27 111.138 131.369 110.99 130.333C110.899 129.691 109.514 128.144 108.216 127.234C106.916 126.322 105.428 124.634 103.183 121.525C102.809 121.007 102.462 120.609 102.412 120.64C102.362 120.666 102.35 120.648 102.386 120.592C102.42 120.535 102.213 120.184 101.916 119.803C101.26 118.961 99.8477 117.132 98.9895 116.012C93.0321 108.234 91.2509 106.649 88.4646 106.643C83.7783 106.636 80.4016 108.191 76.324 112.238C74.9519 113.599 74.9889 113.513 75.3742 114.468C75.9567 115.913 76.7828 120.69 77.4992 126.757C77.6571 128.095 77.6571 128.095 78.2755 129.202C81.7652 135.452 81.4184 136.216 74.6258 137.239C71.5711 137.7 70.4909 137.597 69.8445 136.787C69.3913 136.218 69.9909 135.534 71.2781 135.15C72.775 134.705 74.6785 133.488 74.6785 132.978C74.6785 131.529 73.5427 128.782 72.084 126.703C70.8787 124.986 69.581 122.323 68.2286 118.793C66.685 114.763 66.5853 113.675 67.5779 111.691C68.9519 108.945 73.6359 103.197 76.6067 100.611C77.9734 99.4211 78.264 98.9233 77.9068 98.3837C77.6304 97.967 77.7566 97.6922 79.4375 95.0568L80.2058 93.8522L79.647 92.427C78.7788 90.2131 77.3104 86.288 77.0254 85.4194C76.7316 84.5241 76.7093 83.7921 76.8 77.9915C76.8581 74.2707 76.783 73.8422 76.0432 73.6664C75.5356 73.5462 74.9521 72.3087 74.8123 71.0564L74.7489 70.4881L75.7975 69.3598C78.3684 66.5938 78.368 66.5943 78.3681 66.1254C78.3681 65.8922 78.3923 65.3938 78.4231 65.0182L78.4781 64.3353L77.812 63.5971C77.4458 63.1911 77.1097 62.8693 77.0654 62.882C77.0212 62.8937 76.995 62.8703 77.0079 62.828C77.0215 62.7861 76.4417 62.0864 75.7215 61.2742L74.4114 59.7979L72.4545 59.737C71.3783 59.7038 69.6224 59.676 68.5525 59.6758C65.0481 59.6751 63.9982 59.5967 63.735 59.3154C62.7437 58.2557 63.3183 55.144 64.462 55.3782C64.5765 55.4016 66.1882 55.4466 68.0433 55.4779L71.4163 55.5351L71.7789 54.6084L72.1416 53.6816L72.5732 53.68C74.511 53.6732 81.6507 53.9828 81.7062 54.0765C81.7413 54.1367 81.9514 54.452 82.172 54.7773L82.5731 55.3687L83.3067 55.3517C84.9342 55.3143 90.1342 55.1566 91.6263 55.1004L93.2168 55.0404L93.5269 54.6132C97.3042 49.413 100.979 49.2827 105.209 54.1993L106.177 55.3252L107.1 55.332C107.607 55.3354 110.32 55.2758 113.127 55.1992L118.233 55.0601L119.298 54.4855L120.363 53.9109L120.304 52.111C120.274 51.1211 120.243 48.5773 120.241 46.4581L120.237 42.6051L119.68 42.3237C105.166 34.9944 85.8338 34.7786 70.5751 41.7753C66.441 43.671 58.8554 48.3023 58.9726 48.8591C58.9828 48.9098 58.9363 48.9461 58.8669 48.9392C58.3938 48.8927 51.2996 55.5065 51.4906 55.8156C51.5273 55.8748 51.5159 55.8971 51.4657 55.8662C51.3094 55.7696 49.0396 58.4856 47.484 60.6306C46.1421 62.4807 45.0269 64.236 43.6928 66.5973C43.2219 67.4308 41.9335 70.0035 41.5903 70.7956C41.4145 71.2016 41.1268 71.866 40.9512 72.272C33.5135 89.4696 35.5456 110.662 46.1449 126.436C47.6351 128.653 48.179 129.392 48.3001 129.363C48.3579 129.348 48.3794 129.378 48.348 129.43C48.3167 129.481 48.7016 130.033 49.204 130.655C52.1512 134.306 55.7838 137.848 59.3683 140.567C60.3679 141.325 62.7559 142.998 62.8388 142.998C62.8645 142.998 63.0177 143.096 63.1793 143.217C64.2001 143.982 68.0269 146.09 70.1601 147.063C78.9347 151.063 88.4131 152.865 97.7854 152.315L97.783 152.318ZM116.18 136.175C116.297 136.113 116.367 135.927 116.413 135.555C116.508 134.79 116.799 133.916 117.063 133.603C117.666 132.886 116.7 131.491 114.249 129.54C113.032 128.57 113.121 128.546 112.941 129.894C112.801 130.95 112.93 131.749 113.408 132.831C113.604 133.273 113.944 134.049 114.163 134.554C114.62 135.61 114.882 135.943 115.4 136.127C115.847 136.285 115.963 136.292 116.18 136.175ZM75.2855 125.93C75.6024 124.981 75.5273 124.091 74.9779 122.285C73.644 117.9 73.1941 116.094 73.1418 114.913C73.0548 112.949 73.0129 112.847 71.3474 110.547L70.7294 109.693L70.1707 110.291C68.5584 112.015 68.473 113.801 69.8639 116.703C70.4498 117.925 71.6419 120.151 71.7468 120.219C71.7947 120.246 71.822 120.291 71.8075 120.312C71.7927 120.331 72.0542 120.888 72.388 121.548C72.7219 122.207 73.0256 122.851 73.0629 122.978C73.1838 123.389 74.2093 125.43 74.5931 126.024C75.0065 126.664 75.0423 126.658 75.2855 125.93ZM105.832 118.174C106.663 116.499 106.508 115.294 105.084 112.366C104.652 111.478 104.15 110.377 103.968 109.921C103.332 108.326 103.099 108.102 101.756 107.795L100.827 107.583L100.366 107.887C99.3977 108.524 98.8188 109.275 98.8272 109.883C98.8385 110.781 100.416 113.158 102.333 115.171C102.913 115.78 103.637 116.662 103.962 117.154C105.027 118.771 105.428 118.988 105.832 118.174ZM76.6776 110.146C77.4014 109.872 77.745 109.209 77.9048 107.775C78.0659 106.329 77.8638 105.948 76.4712 105.08C76.0966 104.848 74.7633 105.738 74.4224 106.449C74.2523 106.805 74.1893 108.646 74.3302 109.147C74.5391 109.891 75.862 110.453 76.6776 110.146ZM96.5971 104.662C99.0151 103.944 99.7747 102.209 98.3385 100.685C97.8484 100.165 97.7497 100.004 97.7008 99.6435C97.482 98.0316 97.3719 97.9618 94.9478 97.9017L92.9768 97.8533L92.6727 98.2371C91.6097 99.5798 91.6104 101.599 92.6744 103.409C93.2574 104.401 95.2906 105.051 96.5971 104.662ZM83.7824 103.632C84.5089 103.044 85.0313 101.565 84.7944 100.769C83.9561 97.9492 83.5663 97.6444 81.1695 97.9332C80.6204 97.9986 79.5142 99.4325 79.2898 100.369C78.8966 102.008 82.5291 104.647 83.7824 103.632ZM90.3735 101.524C90.3299 99.789 90.2069 97.3421 89.9878 93.8192C89.8498 91.6031 89.8031 89.9967 89.823 88.1444L89.8498 85.5609L90.1529 84.9407C90.3453 84.5474 90.6429 84.1426 90.967 83.8333C92.2286 82.6303 92.4313 82.0169 92.7544 78.4264C93.1942 73.5375 93.0877 73.032 90.9988 70.1053C89.8874 68.5482 89.7293 68.2696 89.2433 67.0141C88.5777 65.2945 88.1292 64.6612 87.577 64.6612C86.4089 64.6612 86.7815 63.0058 88.0411 62.5994C91.2573 61.5616 90.8408 59.2657 87.2999 58.5135C84.9672 58.0179 84.2622 58.6937 83.9429 61.7315L83.8871 62.2621H82.8718C81.8565 62.2621 81.8565 62.2621 81.905 62.0084C82.1443 60.7565 82.0849 60.3868 81.5578 59.8484C81.2255 59.5091 81.1484 59.3562 81.0534 58.8481C80.7446 57.1963 80.2348 56.1782 79.6575 56.06C79.48 56.0234 78.9546 55.9097 78.49 55.807C76.7401 55.4194 75.9371 56.2275 75.9266 58.3869C75.9186 60.1775 76.2336 60.5336 79.0235 61.8791C81.3855 63.0181 81.1794 62.7552 81.1794 64.6303C81.1794 66.1443 81.1862 66.1972 81.4372 66.7089C81.7121 67.2686 82.6439 68.2142 82.8159 68.1078C82.8701 68.0738 82.8919 68.0851 82.8642 68.1305C82.8374 68.1762 83.6234 68.7537 84.6126 69.4135C85.6017 70.0732 86.677 70.8123 87.0022 71.0557C87.3293 71.3006 87.6402 71.4695 87.6982 71.4338C87.7584 71.3961 87.7777 71.4074 87.7436 71.4641C87.7111 71.517 87.9017 71.7287 88.1675 71.9343C89.023 72.5965 89.4098 73.0623 89.7132 73.7955C90.8747 76.6021 90.6071 77.7782 89.0101 76.8848C87.8536 76.2377 85.99 76.8383 85.4394 78.034C84.9123 79.1793 84.163 79.5037 83.5577 78.849C83.2359 78.5005 83.2269 77.7257 83.5441 77.689C83.8632 77.6512 84.7832 77.0895 84.7536 76.9496C84.7418 76.8906 84.7819 76.8506 84.8457 76.8634C85.0127 76.8936 85.0259 76.4742 84.8926 75.364L84.7764 74.3951L83.9924 74.2367C82.6018 73.9562 81.3655 73.8544 81.0691 73.9967L80.8101 74.1211V76.2491C80.8101 78.3771 80.8101 78.3771 80.5603 78.739C80.0229 79.5173 79.7247 82.9673 80.1303 83.7144C80.2129 83.8667 80.5402 84.9048 80.8574 86.0212C82.4165 91.5079 84.916 96.3737 86.3774 96.7675C87.0544 96.9497 87.0228 96.8329 87.1301 99.5391C87.1834 100.884 87.2489 102.162 87.2761 102.379L87.3251 102.773L88.864 102.75L90.403 102.727L90.3735 101.524ZM93.5483 65.1744C94.1797 64.8274 95.1142 64.1578 96.7684 62.8677C97.2757 62.472 97.8101 62.0597 97.9558 61.9514C99.5847 60.7413 102.387 57.8125 102.94 56.741C103.603 55.4602 100.849 53.5773 99.4433 54.3493C98.8036 54.7006 96.8725 56.6289 94.4019 59.3837C93.7331 60.1294 92.67 61.2522 92.0395 61.8788C90.662 63.2476 90.1567 64.335 90.4167 65.3711C90.5209 65.7863 92.6824 65.6502 93.5483 65.1744ZM122.834 64.6861C123.334 64.2651 124.044 62.4137 124.842 59.4477C125.494 57.0258 125.587 56.4708 125.778 53.8364C126.006 50.6977 126.381 47.9158 126.755 46.5964C126.777 46.5131 126.903 46.5496 127.182 46.7224C127.398 46.8564 127.514 46.9048 127.436 46.8297C126.983 46.382 121.348 43.0207 121.348 43.1977C121.348 43.2196 121.619 43.3891 121.948 43.5737L122.548 43.9091L122.547 44.8965C122.546 46.1039 122.395 50.2567 122.269 52.5737C122.116 55.3553 121.92 56.9796 121.571 58.3652C120.463 62.756 121.136 66.1161 122.834 64.6861ZM33.5073 152.253C33.6674 151.708 33.9236 150.846 34.0769 150.339C34.7472 148.119 34.9193 146.922 34.7103 145.93L34.6367 145.582L35.2324 145.989C37.4188 147.487 40.0046 146.795 41.1284 144.412C42.0004 142.563 41.5287 141.525 37.9505 137.418C37.0208 136.351 36.0942 135.284 35.8913 135.046L35.5223 134.615L35.0611 135.017C34.8075 135.238 33.2717 136.572 31.6483 137.98C30.0249 139.389 27.9703 141.173 27.0825 141.944C26.1947 142.716 25.3469 143.451 25.1985 143.577L24.9287 143.805L25.8292 144.834C26.9172 146.077 26.4552 146.203 29.0113 143.967C31.4605 141.825 31.1843 141.931 31.877 142.864C32.7972 144.104 32.7918 144.201 31.5428 148.799C30.9475 150.991 30.8871 150.652 32.1301 152.091C33.3205 153.469 33.1559 153.45 33.5073 152.253ZM36.3832 144.205C35.9758 144.081 35.5294 143.668 34.298 142.273C33.6524 141.542 33.0723 140.891 33.0089 140.827C32.8332 140.648 32.8659 140.591 33.3979 140.143C33.669 139.915 33.8711 139.696 33.8467 139.656C33.8229 139.616 33.8365 139.597 33.8781 139.608C34.0143 139.653 34.6462 139.11 34.5841 139.001C34.5512 138.944 34.5572 138.926 34.5977 138.96C34.6373 139.001 34.858 138.862 35.0867 138.661C35.6244 138.187 35.4528 138.083 36.9169 139.77C38.6391 141.755 38.8344 142.14 38.6004 143.093C38.4306 143.784 37.1385 144.433 36.3832 144.205ZM155.799 151.907C156.142 151.451 156.523 150.969 156.646 150.837L156.87 150.598L156.243 149.61C155.897 149.067 155.487 148.411 155.329 148.151L155.043 147.679L156.063 146.38C156.623 145.665 157.409 144.66 157.808 144.147L158.534 143.214L160.16 143.71C161.054 143.982 161.816 144.174 161.854 144.135C161.895 144.094 162.316 143.566 162.796 142.957L163.669 141.85L163.332 141.74C163.147 141.681 160.962 141.043 158.476 140.325C155.99 139.607 153.167 138.79 152.204 138.509C149.434 137.703 149.181 137.638 149.114 137.716C148.89 137.974 147.645 139.583 147.522 139.773C147.376 139.999 147.395 140.041 148.779 142.357C150.061 144.504 153.375 150.082 154.553 152.077C154.817 152.526 155.067 152.859 155.106 152.816C155.146 152.771 155.457 152.364 155.799 151.907ZM152.615 143.769C151.989 142.764 151.315 141.7 151.117 141.404C150.646 140.701 150.461 140.683 153.449 141.628C156.4 142.562 156.208 142.48 155.991 142.719C155.901 142.819 155.859 142.947 155.899 143.011C155.944 143.079 155.926 143.099 155.873 143.062C155.817 143.024 155.369 143.526 154.83 144.224C154.31 144.897 153.856 145.481 153.82 145.521C153.782 145.566 153.24 144.775 152.615 143.769ZM25.2555 137.739C26.9731 135.626 29.1112 132.998 31.3393 130.262C31.7766 129.726 32.1857 129.204 32.2484 129.104C32.3439 128.95 31.4637 127.058 30.9959 126.411C30.9842 126.396 29.7358 126.548 28.2216 126.752C26.7073 126.955 23.4138 127.398 20.9027 127.735C18.3915 128.073 16.2826 128.366 16.2163 128.386C16.1288 128.409 16.1767 128.569 16.3885 128.954C16.5496 129.248 16.863 129.821 17.085 130.231L17.4888 130.975L19.0343 130.719C19.8843 130.578 20.642 130.462 20.7181 130.46C20.8744 130.457 20.8319 130.388 22.2411 132.947C22.8138 133.988 23.3576 134.97 23.4494 135.129C23.6163 135.42 23.6163 135.42 23.0972 136.012C21.1465 138.234 21.2043 137.707 22.6349 140.23L22.8665 140.638L23.1066 140.363C23.2387 140.212 24.2058 139.03 25.2555 137.739ZM24.2502 131.814C23.7361 130.889 23.3338 130.114 23.3561 130.091C23.5997 129.848 28.9288 129.183 28.7114 129.423C28.627 129.516 28.5893 129.624 28.6274 129.661C28.6652 129.702 28.6482 129.716 28.5887 129.702C28.529 129.686 27.7674 130.501 26.896 131.516C26.0247 132.531 25.2834 133.392 25.2486 133.43C25.2142 133.47 24.7643 132.74 24.2502 131.814ZM166.534 137.547C166.849 136.931 167.085 136.407 167.06 136.381C167.015 136.336 165.617 135.624 159.652 132.602C158.372 131.954 157.366 131.409 157.418 131.392C157.469 131.376 158.247 131.529 159.147 131.735C164.475 132.956 168.088 133.79 168.22 133.829C168.371 133.874 169.643 131.66 169.573 131.474C169.558 131.429 168.299 130.31 166.777 128.98C165.255 127.65 163.839 126.41 163.629 126.224C163.42 126.039 162.77 125.472 162.185 124.965C161.6 124.457 161.136 124.027 161.154 124.009C161.18 123.982 164.829 125.794 166.685 126.764C168.407 127.664 170.896 128.902 170.924 128.872C171.01 128.776 172.092 126.654 172.066 126.633C172.051 126.617 171.433 126.304 170.697 125.935C169.961 125.565 168.945 125.045 168.437 124.78C166.25 123.637 159.612 120.291 159.587 120.32C159.572 120.335 159.148 121.171 158.645 122.172L157.729 123.994L158.148 124.396C158.63 124.859 159.691 125.813 162.833 128.606C164.059 129.695 165.045 130.603 165.025 130.622C165.006 130.641 164.105 130.467 163.024 130.235C161.943 130.003 159.8 129.54 158.262 129.208C154.964 128.497 155.49 128.32 154.388 130.508L153.484 132.303L154.78 132.982C155.494 133.355 157.721 134.497 159.731 135.519C161.74 136.541 163.94 137.665 164.619 138.017C165.299 138.371 165.878 138.66 165.908 138.662C165.934 138.664 166.219 138.163 166.534 137.547ZM16.801 124.141C19.3023 123.333 27.7495 120.587 27.8304 120.556C27.875 120.541 27.1172 118.008 27.0429 117.928C27.0312 117.913 25.8835 118.279 24.4925 118.734C23.1015 119.19 21.9154 119.564 21.8567 119.565C21.798 119.565 21.4325 118.58 21.0444 117.375C20.6564 116.169 20.2711 114.987 20.1882 114.747C19.9989 114.199 19.7321 114.345 22.6159 113.417C25.6187 112.45 25.3518 112.687 24.9222 111.376C24.3738 109.702 24.4698 109.855 24.064 110.01C23.8727 110.083 22.2216 110.627 20.3953 111.218C18.569 111.808 16.2031 112.576 15.1378 112.925C14.0724 113.273 12.7321 113.709 12.1593 113.893C11.3075 114.169 11.1267 114.257 11.1667 114.383C11.1932 114.468 11.3925 115.06 11.6086 115.7L12.0017 116.862L14.7688 115.96C16.2907 115.464 17.6002 115.033 17.6787 115.003C17.8045 114.954 19.522 119.859 19.5189 120.258C19.5185 120.308 18.242 120.762 16.6823 121.264C15.1226 121.767 13.821 122.203 13.7898 122.233C13.7237 122.297 14.5369 124.826 14.6238 124.826C14.6559 124.826 15.6359 124.516 16.801 124.141ZM173.649 123.142C173.649 123.126 173.814 122.497 174.013 121.737C174.213 120.977 174.347 120.334 174.307 120.307C174.267 120.284 173.648 119.848 172.928 119.346C172.208 118.845 171.619 118.409 171.619 118.378C171.618 118.239 173.031 113.054 173.087 112.993C173.124 112.952 173.886 112.846 174.787 112.75C175.688 112.653 176.44 112.56 176.458 112.542C176.597 112.402 177.215 109.694 177.109 109.694C176.959 109.694 175.497 109.866 168.068 110.759C164.923 111.137 162.318 111.447 162.28 111.447C162.24 111.447 162.212 111.507 162.212 111.583C162.212 111.657 162.064 112.264 161.884 112.93C161.472 114.45 161.302 114.151 163.503 115.769C168.36 119.338 170.236 120.714 171.384 121.551C171.733 121.805 172.063 121.998 172.119 121.981C172.174 121.966 172.191 121.979 172.159 122.019C172.072 122.106 172.902 122.728 173.014 122.659C173.063 122.632 173.092 122.644 173.078 122.685C173.055 122.773 173.457 123.157 173.583 123.163C173.623 123.164 173.649 123.153 173.649 123.142ZM169.258 116.769C169.111 116.645 168.762 116.397 168.483 116.213C168.203 116.03 167.727 115.701 167.423 115.482C166.83 115.055 165.775 114.314 165.267 113.967C164.867 113.695 164.738 113.722 167.875 113.437C171.018 113.154 170.668 113.014 170.292 114.405C170.122 115.036 169.909 115.843 169.818 116.198C169.611 117.012 169.583 117.041 169.258 116.769ZM15.2262 108.645C16.0117 108.285 17.0443 107.266 16.8847 107.008C16.8568 106.963 16.8745 106.925 16.9243 106.925C16.9745 106.925 17.0663 106.697 17.129 106.418C17.2636 105.816 17.2941 105.806 17.6135 106.255C17.7484 106.445 17.8588 106.565 17.8588 106.518C17.8588 106.473 17.9396 106.537 18.0384 106.666C19.2762 108.24 22.507 107.363 23.3149 105.234C23.7306 104.139 23.0154 96.1281 22.5019 96.1281C22.082 96.1281 8.90792 97.7621 8.84847 97.8216C8.80524 97.8666 9.3969 102.702 9.6572 104.429C9.90332 106.062 10.2727 107.283 10.4815 107.154C10.53 107.127 10.5481 107.155 10.5212 107.224C10.4563 107.394 11.2238 108.139 11.769 108.436C12.8302 109.014 14.2343 109.1 15.2262 108.645ZM12.9709 105.893C12.5184 105.66 12.1903 105.24 12.0487 104.713C11.8608 104.015 11.4279 100.265 11.5318 100.235C11.7431 100.176 15.1906 99.7963 15.219 99.8306C15.2925 99.9186 15.6487 103.349 15.647 103.952C15.6421 105.613 14.3044 106.583 12.9709 105.893ZM18.8034 104.618C18.4593 104.409 18.1758 103.989 18.0383 103.486C17.9066 103.005 17.4812 99.6132 17.5446 99.5491C17.5883 99.5042 20.735 99.085 20.7802 99.1176C20.8744 99.1845 21.2421 103.27 21.1827 103.59C20.9913 104.624 19.7159 105.175 18.8034 104.618ZM175.278 106.519C177.21 106.004 178.165 104.567 178.166 102.173C178.167 99.2385 176.759 97.9962 173.095 97.6967C169.63 97.4144 164.372 97.0725 164.32 97.1276C164.282 97.1654 164.233 97.7783 164.196 98.4973L164.132 99.8044L164.625 99.8585C164.895 99.8849 166.964 100.038 169.222 100.191C175.531 100.616 175.821 100.705 175.813 102.203C175.81 103.342 175.339 103.824 174.072 103.997L173.28 104.106V104.532C173.28 104.767 173.303 105.339 173.339 105.804L173.398 106.648L174.099 106.647C174.485 106.646 175.016 106.59 175.278 106.519ZM18.0894 87.414C19.3687 86.8777 19.9773 85.2031 19.3781 83.8673C18.2508 81.3544 14.6951 82.184 14.688 84.9617C14.683 86.8426 16.4366 88.1068 18.0894 87.414ZM171.804 87.3989C174.252 86.3819 173.519 82.3833 170.884 82.3833C170.288 82.3833 169.553 82.6176 169.651 82.7761C169.692 82.8351 169.666 82.8445 169.593 82.7988C169.416 82.6896 168.713 83.5016 168.538 84.0157C167.791 86.2076 169.761 88.248 171.804 87.3989ZM19.1055 79.4687C20.5724 78.6088 20.888 76.6776 19.7693 75.4063C18.2036 73.6269 15.5127 74.7391 15.5081 77.1676C15.5047 79.1563 17.4814 80.4209 19.1055 79.4687ZM170.822 79.6494C172.524 79.0691 173.075 76.7394 171.836 75.364C170.354 73.7195 167.791 74.6741 167.585 76.9473C167.416 78.8074 169.12 80.2295 170.822 79.6494ZM160.021 65.9436C163.081 64.5363 164.184 64.0234 166.716 62.8291C167.697 62.3664 168.527 62.0054 168.561 62.0268C168.598 62.0475 168.891 62.6506 169.22 63.3656C169.55 64.0805 169.845 64.6549 169.878 64.642C170.03 64.5819 171.16 62.9896 171.11 62.9076C171.083 62.8565 171.102 62.8261 171.16 62.8399C171.539 62.9292 171.434 62.544 170.602 60.7869C170.133 59.7985 169.615 58.6991 169.449 58.3439C168.366 56.0193 167.866 55.0532 167.315 54.217C166.971 53.6955 166.644 53.1859 166.587 53.0844C165.147 50.5107 159.104 41.7874 158.864 41.9356C158.812 41.9677 158.798 41.9492 158.826 41.8946C158.908 41.7625 157.232 39.5518 157.108 39.6284C157.052 39.6628 157.04 39.6431 157.082 39.579C157.127 39.5116 156.484 38.7603 155.403 37.604C154.442 36.5775 153.262 35.3072 152.779 34.7813C152.296 34.2553 151.882 33.8401 151.86 33.8586C151.823 33.8854 150.946 33.2025 150.771 33.0147C150.748 32.9879 149.583 32.0156 148.188 30.8549C146.793 29.6943 145.486 28.5905 145.283 28.4021C145.08 28.2137 144.416 27.7141 143.807 27.2918C143.198 26.8695 141.96 26.0019 141.056 25.3637C139.127 24.0022 139.137 24.0084 135.736 22.1286C134.29 21.3294 132.358 20.2567 131.442 19.7447C130.526 19.2327 129.707 18.7867 129.62 18.7537C129.338 18.6452 129.389 21.322 129.671 21.463C129.786 21.5199 130.128 21.7074 130.432 21.8798C130.737 22.0522 131.491 22.4711 132.108 22.8107L133.231 23.4282L132.418 24.8751C131.504 26.5025 131.494 26.5131 130.932 26.4283C130.543 26.3698 130.518 26.3469 130.386 25.9311C130.311 25.6914 130.198 25.5052 130.136 25.5173C130.074 25.529 130.046 25.4821 130.075 25.4081C130.237 24.9871 129.03 24.8554 128.634 25.251C127.948 25.9374 127.961 26.5225 128.77 31.4949C129.051 33.2194 129.305 34.7876 129.335 34.9798C129.38 35.2488 129.427 35.3188 129.543 35.2837C129.628 35.2587 129.975 35.1692 130.318 35.0846C130.872 34.9478 130.934 34.9101 130.894 34.7345C130.871 34.6264 130.662 33.479 130.432 32.1849C130.204 30.8908 129.995 29.7628 129.968 29.6783C129.923 29.5423 130.044 29.52 131.007 29.4845C131.605 29.463 132.186 29.4129 132.298 29.3747C132.469 29.316 132.51 29.3463 132.564 29.5685C132.775 30.4457 133.463 31.2964 134.325 31.746C134.946 32.0698 135.978 32.4391 136.047 32.3628C136.085 32.3254 137.256 30.2302 137.473 29.8191C137.574 29.6266 137.567 29.6241 137.188 29.7125C136.146 29.9547 134.703 29.5728 133.962 28.8587L133.502 28.4151L133.777 27.9239C133.93 27.6538 134.396 26.8193 134.814 26.0695L135.574 24.7062L135.955 24.927C136.165 25.0482 136.876 25.4513 137.535 25.8224C138.195 26.1936 138.782 26.5627 138.839 26.6427C138.896 26.7227 139.218 26.9746 139.554 27.2021C139.89 27.4297 140.164 27.6391 140.164 27.6675C140.164 27.7172 135.795 34.0017 134.792 35.396C134.526 35.7666 134.294 36.1074 134.277 36.1534C134.255 36.2242 134.742 37.5835 135.248 38.8478L135.387 39.1942L136.054 38.25C136.421 37.7308 136.822 37.1539 136.944 36.9681C137.068 36.7823 137.478 36.1902 137.859 35.6523C138.239 35.1144 138.882 34.2046 139.288 33.6305C139.694 33.0563 140.545 31.8339 141.179 30.914C141.813 29.9941 142.365 29.2393 142.404 29.2367C142.543 29.2288 144.62 30.7489 144.661 30.8894C144.706 31.0289 146.048 32.1935 146.244 32.2589C146.439 32.3239 146.331 32.4801 144.952 34.1237C143.503 35.851 143.485 35.8677 143.305 35.6498C142.62 34.8246 141.737 35.2929 141.551 36.58C141.088 39.7816 142.045 41.4247 143.497 39.9216L144.016 39.3839L145.25 40.4114C145.928 40.9766 146.718 41.6415 147.005 41.8891L147.528 42.3393L146.231 43.6384L144.934 44.9374L145.235 46.5011C145.401 47.3611 145.551 48.0523 145.569 48.0371C145.584 48.0224 147.532 46.0798 149.892 43.7213L154.185 39.4332L155.065 40.3073C155.778 41.0159 156.873 42.2701 157.364 42.9415C157.427 43.028 157.38 43.1205 157.192 43.2673C157.049 43.3801 156.117 44.1319 155.121 44.938C154.125 45.7441 152.363 47.1594 151.206 48.0831L149.102 49.7627L149.165 50.7315C149.32 53.0743 149.318 53.0612 149.552 52.896C149.67 52.8138 149.734 52.7008 149.699 52.6398C149.661 52.58 149.672 52.5609 149.714 52.598C149.781 52.6592 150.002 52.504 151.013 51.6825C151.213 51.5201 151.838 51.0178 152.402 50.566C152.966 50.1142 154.087 49.207 154.892 48.5499C155.698 47.8929 156.914 46.9034 157.595 46.3511L158.832 45.347L159.102 45.6635C160.033 46.7555 160.843 47.8473 161.511 48.9122C162.308 50.1821 162.949 51.1908 163.46 51.9776C165.781 55.5546 167.84 59.0282 167.84 59.3687C167.84 59.4275 166.324 60.1454 166.212 60.1397C166.142 60.1363 164.93 58.4207 162.554 54.9604C161.578 53.5403 161.252 53.45 160.913 54.5071C159.981 57.4117 158.108 58.2661 157.22 56.1921C156.783 55.1721 157.182 53.8349 158.476 52.0397C158.817 51.5664 159.08 51.1683 159.063 51.155C159.047 51.1414 158.828 50.9938 158.58 50.826L158.13 50.5211L157.957 50.742C154.866 54.689 154.408 58.194 156.793 59.6592C158.408 60.652 160.598 59.5239 160.977 57.5039C161.037 57.1791 161.145 57.0997 161.227 57.317C161.275 57.4437 161.475 57.7285 163.028 59.8894C164.045 61.3036 164.035 61.1807 163.159 61.5871C162.059 62.0971 160.156 62.9705 159.018 63.4882L157.99 63.9557L157.791 65.2562C157.681 65.9715 157.569 66.6948 157.54 66.8636L157.488 67.1709L158.168 66.8281C158.543 66.6395 159.378 66.2419 160.025 65.9445L160.021 65.9436ZM148.056 41.6783C148.161 41.5573 148.419 41.2619 148.633 41.022C148.846 40.782 149.021 40.5494 149.021 40.505C149.021 40.4012 147.893 39.513 147.8 39.5435C147.76 39.5553 147.741 39.5299 147.752 39.487C147.767 39.4433 147.286 38.9999 146.688 38.5018C146.049 37.9694 145.619 37.5471 145.646 37.4773C145.691 37.3708 147.493 35.177 148.158 34.426L148.42 34.1296L149.85 35.3288C152.7 37.7193 152.615 37.2591 150.585 39.2926C149.617 40.2623 148.948 41.0017 148.985 41.0613C149.025 41.1258 149.004 41.1374 148.933 41.0923C148.86 41.0469 148.72 41.1414 148.543 41.3554C148.391 41.5393 148.177 41.7366 148.068 41.7939C147.868 41.8981 147.871 41.8984 148.056 41.6783ZM30.4576 62.5973C32.392 61.9774 32.8562 60.6857 31.4262 59.9024C31.0918 59.7191 30.8035 59.5557 30.7855 59.5387C30.7682 59.5217 31.0215 59.0175 31.3499 58.418C31.6783 57.8185 32.1037 57.0374 32.2953 56.6822C32.4869 56.3269 32.6829 55.9862 32.7304 55.925C32.7784 55.8638 32.797 55.7805 32.7714 55.7404C32.7465 55.7007 32.822 55.6671 32.9392 55.6671C33.0564 55.6671 33.1357 55.6936 33.1157 55.726C33.0779 55.7878 35.7105 57.4663 35.8457 57.4663C35.9779 57.4663 38.7043 56.2397 38.6995 56.1823C38.6978 56.1525 38.2922 55.883 37.8002 55.5831C37.308 55.2832 36.6978 54.9059 36.4441 54.7447C36.1906 54.5835 35.6301 54.2322 35.1989 53.9642C34.7677 53.6961 34.2696 53.3834 34.0921 53.2693C33.4848 52.8789 29.8194 50.5917 28.8576 50.0029C28.3581 49.6972 29.1341 48.173 31.1032 45.5916L31.3984 45.2046L31.7203 45.4531C32.0304 45.6928 36.1163 49.1236 36.3981 49.3812C36.4742 49.4509 37.1858 50.0481 37.9793 50.7086L39.4221 51.9095L40.9309 51.486C42.7095 50.9866 42.5713 51.055 42.2736 50.8207C42.1413 50.7167 41.5813 50.249 41.0289 49.7814C40.4766 49.3138 39.8223 48.7651 39.575 48.5621C39.3277 48.3591 38.4183 47.5976 37.5542 46.8699C36.6901 46.1422 35.7286 45.3325 35.4177 45.0706C35.1068 44.8087 34.7539 44.5151 34.6336 44.4181C34.5135 44.3211 34.166 44.0329 33.8616 43.7776C33.5572 43.5223 33.2719 43.283 33.2277 43.2459C33.1684 43.196 34.6298 41.3159 35.0125 40.9497C35.0389 40.9243 35.0609 40.8492 35.0609 40.7827C35.0609 40.6527 37.7882 37.7295 37.8881 37.7524C39.4083 38.1014 40.759 41.3187 39.3853 41.3187C38.3164 41.3187 37.7535 42.3187 38.4146 43.0428C39.0391 43.7267 39.5592 43.8361 44.6537 44.3554C48.5181 44.7493 48.2161 44.7959 48.1824 43.8106L48.1585 43.1192L45.5298 42.9053C44.0839 42.7876 42.8545 42.6765 42.7977 42.6583C42.7326 42.6376 42.7943 42.4237 42.9652 42.0791C43.2952 41.413 43.4023 40.4073 43.2241 39.6477C43.105 39.1398 40.7499 36.5348 40.5318 36.6696C40.4881 36.6965 40.4635 36.6745 40.4777 36.6222C40.4913 36.5692 40.3278 36.369 40.1138 36.177L39.7246 35.8282L41.2668 34.25C42.5969 32.8888 42.9866 32.5516 44.1003 31.7979C47.3852 29.5751 48.6234 28.7299 48.666 28.6815C48.6914 28.6531 49.1118 28.3678 49.6002 28.0486C50.0885 27.7292 50.6253 27.3457 50.7928 27.196C51.1869 26.844 51.11 26.7918 51.8204 27.8941L52.4381 28.8526L52.0048 29.2109C51.7665 29.4078 50.851 30.1214 49.9704 30.7964C47.1687 32.9438 46.8502 33.2964 46.6787 34.4401C46.5302 35.431 48.016 37.7337 48.6475 37.4913C48.7138 37.466 48.7447 37.4834 48.7164 37.5283C48.6885 37.5742 48.8624 37.6843 49.1036 37.7731C49.3449 37.862 49.8952 38.0704 50.3264 38.2365C52.3577 39.0188 53.8548 39.5719 53.8732 39.5467C53.8849 39.532 54.0011 39.2236 54.1326 38.8626L54.3718 38.2062L52.695 37.5931C50.189 36.6767 49.8403 36.44 49.582 35.4805C49.2877 34.3876 49.5826 34.0616 53.3365 31.3286L53.81 30.984L54.2085 31.5959C54.4278 31.9325 54.6504 32.2557 54.7035 32.3143C54.7567 32.3728 54.8623 32.5349 54.9384 32.6743C55.2689 33.2796 56.8198 35.6174 56.9155 35.6541C56.9733 35.6757 57.6946 35.6825 58.5182 35.6689L60.0156 35.6436L58.8375 33.819C57.3879 31.5737 55.2615 28.302 54.1929 26.6722L53.3927 25.4518L53.8197 25.2032C54.0545 25.0666 54.6335 24.6965 55.1063 24.3812L55.966 23.8079L54.8757 23.2043C53.7075 22.5574 53.4944 22.4715 53.5342 22.6631C53.5478 22.7304 53.5194 22.76 53.4691 22.7295C53.4193 22.6989 52.7024 23.1196 51.8758 23.6646C51.0492 24.2097 50.2898 24.7026 50.1884 24.76C49.2331 25.3005 46.444 27.2648 43.5996 29.4004L40.1468 31.9927L37.558 34.7959C32.0525 40.7572 32.4682 40.2872 28.8935 44.5916C28.4594 45.1143 27.4236 46.6708 27.2339 47.0854C27.1642 47.2377 26.2747 48.691 25.2571 50.315L23.407 53.2677L23.792 53.3237C24.0038 53.3543 24.5995 53.4063 25.1156 53.439L26.054 53.4983L26.4993 52.7625C26.7441 52.3579 26.9704 52.0257 27.0021 52.0244C27.044 52.0227 30.645 54.2299 30.8493 54.3829C30.9244 54.4392 28.709 58.3949 28.6162 58.3702C28.5592 58.3555 27.8639 58 27.0712 57.5814C25.0435 56.5103 24.325 56.2962 23.301 56.4578C22.689 56.5544 22.0851 56.8106 22.1648 56.9395C22.1984 56.9951 22.1765 57.0047 22.1088 56.963C21.9255 56.8497 21.1027 57.7819 20.7809 58.4673C19.5945 60.9946 21.738 63.1897 24.244 62.0138C24.9311 61.6913 25.8272 60.9221 25.7501 60.721C25.7236 60.6511 25.7384 60.6171 25.7837 60.6454C25.8296 60.6733 25.9608 60.5409 26.0754 60.3502C26.1901 60.1596 26.2942 59.9894 26.3068 59.9722C26.3205 59.9548 26.6013 60.0924 26.9328 60.2779L27.5357 60.6152L27.2011 61.2914C26.4683 62.7728 27.9972 63.3859 30.4576 62.5973ZM23.2747 60.4625C22.185 60.0624 21.6866 59.2877 22.0573 58.5704C22.3423 58.0193 22.8165 58.0944 24.4183 58.9444C25.727 59.6389 25.6892 59.5924 25.2783 60.0035C24.6909 60.5912 24.0344 60.7415 23.2747 60.4625ZM76.8658 28.1233L77.2547 27.4768L75.5741 26.3473C74.6497 25.7252 73.6155 25.0367 73.2757 24.8164L72.658 24.4159L73.2817 23.792C73.6247 23.4489 73.9772 23.0165 74.0651 22.8312C74.2512 22.4391 74.2521 22.4388 74.7826 22.6738C76.1613 23.2838 76.9671 23.1207 79.0261 21.8144C79.3293 21.6221 80.0273 24.2619 80.0273 25.6013C80.0273 25.6409 82.0458 26.6164 82.6583 26.8724L82.9391 26.9896L82.5907 24.8111C82.399 23.613 82.1346 21.9476 82.0031 21.1102C81.8718 20.2729 81.6845 19.0895 81.5874 18.4805C81.1236 15.5741 81.0389 14.9926 81.0741 14.9573C81.5222 14.5091 93.7125 13.4511 93.5501 13.8744C93.5195 13.9547 93.4941 14.8434 93.4941 15.8494V17.6783L92.8091 17.002C89.2653 13.5025 83.56 16.7715 85.7032 21.0734C86.9661 23.6083 89.8451 24.4475 92.0477 22.9225C92.5402 22.5816 93.3096 21.7506 93.3096 21.5596C93.3096 20.6315 93.4964 21.8816 93.5149 22.9326L93.5402 24.3859L94.7854 25.2346C95.4702 25.7014 96.0617 26.0855 96.0998 26.0881C96.1376 26.0915 96.169 23.3525 96.169 20.003V13.913H97.5189C98.7823 13.913 99.8726 14.0111 105.603 14.6409C107.457 14.8447 107.254 14.5904 107.003 16.3882C106.759 18.1412 106.777 18.1014 106.467 17.5726C104.067 13.4761 98.139 16.6039 100.258 20.8488C101.35 23.0371 104.427 24.1813 105.8 22.9091C106.12 22.6121 106.125 22.6538 105.935 23.9707L105.769 25.1241L106.16 25.4931C106.376 25.6962 106.903 26.1802 107.333 26.5688L108.114 27.2754L108.53 24.3645L108.945 21.4535L109.406 21.0948C112.75 18.4908 113.811 20.5467 110.951 24.0901L110.35 24.8348L110.8 25.2451C111.048 25.4707 111.464 25.8623 111.726 26.1152C112.279 26.649 112.231 26.662 112.891 25.7941C115.7 22.0982 113.802 16.7569 110.119 17.993C109.751 18.1165 109.438 18.2053 109.423 18.1905C109.389 18.1569 109.813 15.2733 109.859 15.2272C109.878 15.2087 111.631 15.4373 113.754 15.7356C115.877 16.0341 117.625 16.253 117.639 16.2224C117.654 16.1921 117.46 15.6283 117.213 14.9705L116.762 13.7745L116.22 13.7126C115.922 13.6794 115.118 13.5855 114.433 13.5061C113.748 13.4265 110.49 13.0486 107.192 12.6662C103.895 12.2839 100.491 11.8877 99.6285 11.7859C98.0831 11.6032 97.5569 11.5766 93.3563 11.4669C91.529 11.419 90.8704 11.4442 88.6061 11.6457C87.1602 11.7745 85.2423 11.9443 84.3441 12.023C83.4458 12.1017 82.2252 12.2689 81.6317 12.3946C81.0382 12.5204 80.5456 12.6124 80.5371 12.5991C80.5292 12.5855 80.3847 12.3468 80.2174 12.0676C79.0754 10.1618 77.4708 9.0308 76.0546 9.13326C75.3513 9.18429 75.3664 9.13816 75.7428 10.0907C76.3866 11.7203 76.2606 11.5679 76.9664 11.5703C77.7001 11.572 78.1873 11.768 78.911 12.35C79.5074 12.8297 79.67 12.7292 77.2146 13.3977C75.4116 13.8885 74.7071 14.0918 72.9256 14.6354C72.4436 14.7825 70.6588 15.327 68.9593 15.8454C67.2598 16.3638 65.5702 16.8806 65.2045 16.9939L64.5396 17.1997L65.4918 18.1491L66.4441 19.0984L67.6325 18.7255C69.5525 18.1232 70.5231 17.8456 70.563 17.8876C70.7563 18.0914 71.544 21.0726 71.4506 21.2472C71.2158 21.6861 70.8465 21.7971 70.3428 21.5805C69.042 21.0206 68.201 22.1254 69.004 23.3393C69.3003 23.7871 70.298 24.5781 72.3608 26.0008C73.2806 26.6351 74.5415 27.5143 75.1628 27.9545C76.5285 28.9222 76.3928 28.9097 76.8658 28.1233ZM87.8674 21.5753C86.8989 21.392 86.624 20.492 87.2043 19.4041C87.2854 19.2519 87.3434 19.0962 87.333 19.0582C87.3228 19.0204 87.3466 18.9994 87.3864 19.0118C87.4261 19.0235 87.6234 18.8751 87.8245 18.6796C89.0223 17.5162 91.2218 17.2903 92.9338 18.1548C93.6759 18.5296 93.6772 18.5081 92.8674 19.2986C91.0807 21.0432 89.3122 21.8485 87.8674 21.5753ZM102.214 21.1602C100.391 20.671 101.641 17.9444 103.789 17.7226C105.511 17.5449 107.083 19.341 105.975 20.2204C104.771 21.1764 103.477 21.4995 102.214 21.1602ZM74.4214 21.0336C74.3281 20.9743 73.2792 17.712 73.1799 17.1718C73.1591 17.0567 77.9542 15.3963 78.3218 15.3915C78.3731 15.3908 78.5137 16.0526 78.6344 16.8622L78.8538 18.3342L78.0502 19.1881C77.6083 19.6578 77.1659 20.0986 77.0673 20.1677C76.9688 20.2367 76.9162 20.3424 76.9505 20.4023C76.9841 20.4621 76.9811 20.483 76.9437 20.4487C76.9054 20.4151 76.6799 20.5052 76.443 20.6511C75.8155 21.0374 74.7458 21.2397 74.4214 21.0336Z" fill="black"/>
</svg>
